<?xml version="1.0" encoding="UTF-8" standalone="no"?>
<!-- Created with Inkscape (http://www.inkscape.org/) -->

<svg
   xmlns:dc="http://purl.org/dc/elements/1.1/"
   xmlns:cc="http://creativecommons.org/ns#"
   xmlns:rdf="http://www.w3.org/1999/02/22-rdf-syntax-ns#"
   xmlns:svg="http://www.w3.org/2000/svg"
   xmlns="http://www.w3.org/2000/svg"
   xmlns:sodipodi="http://sodipodi.sourceforge.net/DTD/sodipodi-0.dtd"
   xmlns:inkscape="http://www.inkscape.org/namespaces/inkscape"
   version="1.1"
   id="svg10"
   width="197.75999"
   height="206.72"
   viewBox="0 0 197.75999 206.72"
   sodipodi:docname="Logo Arroscia FabLab.svg"
   inkscape:version="0.92.0 r15299">
  <metadata
     id="metadata16">
    <rdf:RDF>
      <cc:Work
         rdf:about="">
        <dc:format>image/svg+xml</dc:format>
        <dc:type
           rdf:resource="http://purl.org/dc/dcmitype/StillImage" />
      </cc:Work>
    </rdf:RDF>
  </metadata>
  <defs
     id="defs14" />
  <sodipodi:namedview
     pagecolor="#ffffff"
     bordercolor="#666666"
     borderopacity="1"
     objecttolerance="10"
     gridtolerance="10"
     guidetolerance="10"
     inkscape:pageopacity="0"
     inkscape:pageshadow="2"
     inkscape:window-width="1920"
     inkscape:window-height="1057"
     id="namedview12"
     showgrid="false"
     inkscape:zoom="10.621275"
     inkscape:cx="71.311147"
     inkscape:cy="140.88563"
     inkscape:window-x="-8"
     inkscape:window-y="-8"
     inkscape:window-maximized="1"
     inkscape:current-layer="layer2"
     inkscape:snap-smooth-nodes="true"
     inkscape:object-paths="true"
     inkscape:snap-intersection-paths="true"
     inkscape:snap-bbox="true"
     inkscape:snap-global="false"
     inkscape:bbox-nodes="true"
     inkscape:bbox-paths="true"
     inkscape:snap-bbox-midpoints="true"
     inkscape:snap-bbox-edge-midpoints="true" />
  <path
     style="fill:#000000;stroke-width:0.31999999"
     d="m 80.959996,196.90003 c -2.376,-0.4496 -5.4,-1.12477 -6.72,-1.50036 l -2.4,-0.68291 0.01971,-8.37748 0.01971,-8.37749 -1.927132,-0.70267 c -1.05992,-0.38646 -3.232003,-1.3083 -4.826845,-2.04852 l -2.899715,-1.34584 -6.054137,5.54762 c -3.329773,3.05119 -6.208099,5.54762 -6.396282,5.54762 -1.064483,0 -11.695311,-7.88941 -11.695311,-8.67939 0,-0.31092 1.310835,-3.41725 2.912966,-6.90296 4.136477,-8.99961 4.00937,-7.67403 1.031475,-10.75687 -1.392364,-1.44143 -2.994351,-3.19467 -3.559977,-3.89609 l -1.028409,-1.2753 -7.895318,2.62694 c -5.90149,1.96355 -8.001439,2.53887 -8.315551,2.27818 -0.92642,-0.76886 -7.145185,-11.26654 -7.145185,-12.06154 0,-0.19153 2.556,-2.60915 5.68,-5.37248 3.124,-2.76334 5.87949,-5.20554 6.12331,-5.42711 0.374164,-0.34002 0.240746,-0.94337 -0.855358,-3.86812 C 24.31368,129.71937 23.554611,127.44 23.34113,126.56 c -0.213483,-0.88 -0.488182,-1.71241 -0.610444,-1.8498 -0.122262,-0.13739 -3.873338,-0.60402 -8.335725,-1.03696 C 9.7943944,123.2269 6.1891418,122.7366 6.0681421,122.54081 5.6356103,121.84096 4.6880628,114.3069 4.6644074,111.37956 l -0.024408,-3.02045 7.7062596,-2.41723 7.706259,-2.41723 0.422305,-4.962324 c 0.232268,-2.72928 0.436451,-5.374288 0.453741,-5.877792 0.02975,-0.866547 -0.344189,-1.128163 -6.997392,-4.895494 C 10.065318,85.600026 6.8382048,83.74487 6.7598102,83.666477 6.3557638,83.262432 9.765467,71.811286 10.650025,70.601581 c 0.400199,-0.547306 0.770612,-0.531959 8.511019,0.352643 l 8.09261,0.924854 1.29653,-2.579539 c 0.713091,-1.418745 2.047358,-3.812336 2.965037,-5.319088 l 1.668509,-2.739549 -4.767754,-6.380451 c -2.622264,-3.509248 -4.848272,-6.561133 -4.946684,-6.781968 -0.09841,-0.220835 0.661537,-1.444835 1.688774,-2.72 1.973544,-2.449869 7.118137,-7.919129 7.447555,-7.917555 0.106909,6.4e-4 3.35054,1.858035 7.208076,4.12783 l 7.013699,4.126903 2.492346,-2.028663 c 1.936131,-1.575926 4.853145,-3.666032 7.529599,-5.39512 0.02714,-0.01754 -0.725312,-3.487878 -1.672112,-7.711878 -0.9468,-4.224 -1.725005,-7.930393 -1.729344,-8.236428 -0.0053,-0.377032 0.796915,-0.961076 2.488333,-1.811504 3.929632,-1.97578 9.403855,-4.237488 9.845859,-4.067875 0.221408,0.08496 2.52304,3.1235 5.114732,6.752305 2.740282,3.836851 4.875334,6.535217 5.102077,6.448208 0.972813,-0.373303 7.282812,-1.7952 9.513068,-2.143676 1.77369,-0.277138 2.514205,-0.532394 2.62152,-0.903636 0.08226,-0.284567 0.823994,-3.923018 1.648304,-8.085447 l 1.498749,-7.568053 0.959734,-0.191947 c 1.247248,-0.24945 10.752549,-0.249384 11.999879,8.3e-5 l 0.96015,0.192029 1.18327,5.967971 c 0.6508,3.282383 1.39605,6.921394 1.65611,8.086689 l 0.47285,2.11872 2.46373,0.384917 c 2.24442,0.350651 8.53658,1.770787 9.52314,2.149366 0.25108,0.09635 2.20377,-2.370012 5.07343,-6.408062 2.56589,-3.610584 4.80583,-6.651583 4.97765,-6.757774 0.70537,-0.435941 12.48952,4.928184 12.48952,5.685206 0,0.412149 -3.02457,14.448374 -3.35914,15.588908 -0.0918,0.31296 0.5517,0.936234 1.84917,1.79103 1.09448,0.721066 3.38008,2.398714 5.07909,3.728109 l 3.08911,2.417079 7.1238,-4.187892 7.1238,-4.187891 2.91669,3.032602 c 3.50929,3.648752 5.94221,6.746208 5.92445,7.542656 -0.007,0.321369 -2.14836,3.454259 -4.7582,6.961981 l -4.74518,6.377673 1.73041,2.853712 c 0.95173,1.569543 2.30074,3.988026 2.9978,5.374407 1.18287,2.35262 1.32609,2.510681 2.14779,2.37046 0.48423,-0.08263 4.11833,-0.51656 8.07578,-0.964281 6.83238,-0.772973 7.21606,-0.785751 7.60539,-0.253312 0.79289,1.084342 4.2736,12.675952 3.90652,13.009664 -0.081,0.07364 -3.24328,1.887917 -7.02728,4.031725 -3.784,2.143808 -7.00047,4.0175 -7.1477,4.16376 -0.14724,0.146259 -0.11471,1.614259 0.0723,3.26222 0.187,1.647965 0.42588,4.226119 0.53084,5.729228 l 0.19084,2.73294 7.68954,2.38706 c 4.57993,1.42175 7.76428,2.57333 7.87435,2.84765 0.34978,0.87178 -1.05922,13.41514 -1.56358,13.9195 -0.0698,0.0698 -3.77904,0.48624 -8.24273,0.92539 -4.46369,0.43916 -8.22238,0.91908 -8.35265,1.0665 -0.13027,0.14742 -0.42434,0.98803 -0.65348,1.86803 -0.22915,0.88 -0.99163,3.15875 -1.6944,5.06389 -1.25054,3.39007 -1.26483,3.47599 -0.67055,4.03128 0.33397,0.31206 3.09122,2.75946 6.12722,5.43867 3.036,2.67921 5.51724,4.96914 5.51386,5.08873 -0.0138,0.48667 -3.22485,6.23598 -5.09728,9.12641 -1.30074,2.00791 -2.20276,3.09102 -2.57424,3.09102 -0.31452,0 -3.95802,-1.13905 -8.09666,-2.53123 l -7.52481,-2.53122 -1.0653,1.33122 c -0.58591,0.73218 -2.19582,2.51129 -3.57759,3.95359 -2.03106,2.12003 -2.47094,2.75269 -2.29636,3.30276 0.11878,0.37422 1.571,3.63642 3.22717,7.24933 1.65617,3.61292 3.01121,6.81701 3.01121,7.1202 0,0.78838 -10.69451,8.68014 -11.73603,8.66033 -0.14518,-0.003 -2.99055,-2.50208 -6.32303,-5.55403 l -6.05906,-5.54901 -2.91352,1.35226 c -1.60243,0.74374 -3.77324,1.66572 -4.824,2.04885 l -1.91049,0.6966 0.003,8.38394 0.003,8.38393 -2.4,0.68182 c -3.06703,0.87132 -11.83177,2.47556 -12.09377,2.21356 -0.10958,-0.10958 -1.65444,-3.54131 -3.43303,-7.62607 L 103.47942,182.56 h -5.24474 -5.244736 l -3.254915,7.52 c -2.502605,5.7819 -3.393603,7.53358 -3.854973,7.57874 -0.330035,0.0323 -2.54406,-0.30911 -4.92006,-0.75871 z m 8.231436,-7.54003 3.231034,-7.44 h 5.817529 5.817525 l 3.23104,7.44 c 3.01227,6.93626 3.28656,7.43981 4.05123,7.43722 1.05304,-0.004 9.7246,-1.75809 11.39065,-2.30467 l 1.26955,-0.41651 v -8.28567 -8.28567 l 3.2,-1.33316 c 1.76,-0.73324 4.0059,-1.7198 4.99088,-2.19236 0.98498,-0.47255 1.92528,-0.85918 2.08955,-0.85918 0.27951,0 1.94785,1.47562 9.35152,8.27124 l 2.99195,2.74623 1.32805,-0.75091 c 1.75831,-0.99418 7.09347,-4.80136 8.62247,-6.153 l 1.21442,-1.07356 -3.4086,-7.46052 -3.40859,-7.46053 2.20017,-2.29947 c 1.21009,-1.26472 3.00058,-3.21976 3.97886,-4.34454 l 1.7787,-2.04506 7.91534,2.63836 c 4.35344,1.4511 7.96152,2.58738 8.01796,2.52506 1.13212,-1.25004 6.56073,-10.61452 6.57197,-11.3368 0.003,-0.18893 -2.73811,-2.76564 -6.09122,-5.72603 -4.618,-4.07711 -6.04138,-5.50717 -5.86896,-5.8965 0.16877,-0.3811 2.78531,-7.88003 3.73294,-10.69848 0.0489,-0.14547 3.75605,-0.62529 8.23809,-1.06624 4.60923,-0.45347 8.24187,-0.95173 8.36255,-1.14701 0.37306,-0.60361 1.5484,-9.54718 1.54576,-11.76224 l -0.001,-1.12 -7.70542,-2.4 c -4.23799,-1.32 -7.75335,-2.47654 -7.81193,-2.5701 -0.0586,-0.0936 -0.25987,-2.03756 -0.44732,-4.320002 -0.1875,-2.282442 -0.4284,-5.085898 -0.53538,-6.229898 l -0.19451,-2.08 7.08408,-3.971699 c 3.89625,-2.184432 7.1465,-4.072691 7.22279,-4.196128 0.24949,-0.403687 -2.91044,-10.941351 -3.61186,-12.04473 -0.17699,-0.278429 -2.24988,-0.139878 -8.20428,0.548365 -4.38211,0.506509 -8.09334,0.84313 -8.24718,0.748051 -0.15384,-0.09508 -0.9112,-1.421846 -1.68303,-2.948368 -0.77183,-1.526518 -2.13573,-3.986477 -3.0309,-5.466566 -0.89518,-1.480093 -1.62759,-2.758323 -1.62759,-2.840515 0,-0.0822 1.99546,-2.83121 4.43436,-6.108925 6.00149,-8.065603 5.55236,-6.997175 3.86559,-9.195757 -0.78097,-1.017939 -2.68387,-3.176506 -4.22867,-4.79681 l -2.80872,-2.946006 -6.77342,4.00343 c -3.72537,2.201888 -6.94933,4.070938 -7.16433,4.153444 -0.21501,0.0825 -1.80895,-0.976743 -3.54209,-2.353888 -1.73314,-1.377143 -4.12126,-3.132813 -5.30694,-3.901485 -1.18568,-0.768672 -2.15578,-1.509255 -2.15578,-1.645738 0,-0.136486 0.79475,-3.812825 1.7661,-8.169647 0.97136,-4.356822 1.72736,-7.955501 1.68,-7.997064 C 141.51614,21.519084 131.9,17.28 131.09735,17.28 c -0.25238,0 -2.50053,2.876446 -4.99589,6.392103 -2.49536,3.515656 -4.6717,6.475336 -4.8363,6.577065 -0.1646,0.101729 -1.7766,-0.176961 -3.58222,-0.619311 -1.80562,-0.44235 -4.70324,-1.05501 -6.43915,-1.361465 -2.57871,-0.455243 -3.20597,-0.677148 -3.42822,-1.212793 -0.14961,-0.360579 -0.92418,-3.954458 -1.72126,-7.986395 -0.79708,-4.031938 -1.53438,-7.415938 -1.63845,-7.52 -0.23713,-0.237136 -12.179407,-0.252329 -12.415938,-0.0158 -0.09538,0.09538 -0.834051,3.479375 -1.641504,7.52 -0.80745,4.040626 -1.589651,7.642765 -1.738221,8.004754 -0.222048,0.541013 -0.841529,0.75817 -3.480342,1.220028 -1.765619,0.309026 -4.615142,0.918375 -6.332278,1.354109 -1.717136,0.435734 -3.289482,0.727999 -3.494106,0.649478 -0.20462,-0.07852 -2.434943,-3.03604 -4.956271,-6.572267 C 67.875875,20.173277 65.602544,17.28 65.345357,17.28 c -0.726048,0 -10.418678,4.283514 -11.183613,4.942433 -0.04304,0.03708 0.71296,3.616132 1.68,7.953461 0.96704,4.337328 1.758253,8.008148 1.758253,8.15737 0,0.149226 -1.188,1.081411 -2.64,2.071523 -1.452,0.990112 -3.832451,2.757783 -5.289891,3.928151 -1.610227,1.293065 -2.835833,2.056592 -3.123827,1.946076 C 46.28561,46.178989 43.13034,44.36529 39.534561,42.248573 35.938785,40.131859 32.87635,38.4 32.729147,38.4 c -0.624019,0 -8.409148,8.670166 -8.409148,9.36513 0,0.169104 1.993052,2.991129 4.429006,6.271168 2.435953,3.280035 4.614469,6.261884 4.841144,6.626326 0.367366,0.590646 0.203785,1.007776 -1.505879,3.84 C 31.02936,66.250182 29.625965,68.76 28.965613,70.08 c -0.660351,1.32 -1.242472,2.446714 -1.293601,2.503808 -0.08897,0.09934 -13.795566,-1.390595 -15.566491,-1.692115 -0.81311,-0.138442 -0.901993,-0.01418 -1.835923,2.56687 -0.539795,1.491799 -1.4048176,4.292544 -1.9222727,6.223885 L 7.4064982,83.193974 14.621371,87.276989 21.836244,91.36 21.63894,93.6 c -0.108517,1.232 -0.348421,4.039549 -0.533121,6.238998 -0.184698,2.199452 -0.437067,4.093362 -0.560818,4.208702 -0.123751,0.11533 -3.537002,1.24587 -7.585002,2.5123 -4.0479995,1.26643 -7.4891567,2.42488 -7.6470159,2.57432 -0.4339673,0.41083 0.9036265,12.39713 1.442374,12.92524 0.068553,0.0672 3.3646419,0.42727 7.3246419,0.80015 3.96,0.37287 7.658279,0.75068 8.218397,0.83957 0.9825,0.15592 1.054085,0.27649 2.030869,3.42055 0.55686,1.79241 1.430581,4.31146 1.941603,5.59788 0.511022,1.28642 0.929131,2.39967 0.929131,2.47387 0,0.0742 -2.628,2.45582 -5.84,5.29248 -3.212,2.83665 -5.970997,5.34475 -6.131105,5.57353 -0.196351,0.28058 0.124564,1.18521 0.985914,2.7792 1.020832,1.88911 4.262393,7.24632 5.268159,8.70648 0.112664,0.16356 3.732647,-0.88186 8.136305,-2.3497 l 7.933337,-2.64435 1.105002,1.24539 c 0.60775,0.68496 2.402688,2.66043 3.988755,4.38992 l 2.883753,3.14452 -3.301344,7.25548 c -1.81574,3.99051 -3.352863,7.35756 -3.41583,7.48234 -0.205062,0.40636 9.018809,7.20027 10.59864,7.80651 0.333337,0.12791 2.42822,-1.5778 6.487427,-5.28223 3.297315,-3.00913 6.186674,-5.47115 6.420799,-5.47115 0.234125,0 1.031946,0.31408 1.772935,0.69796 0.740988,0.38387 2.931251,1.37401 4.867251,2.2003 l 3.519999,1.50234 v 8.25278 8.25277 l 1.31001,0.43693 c 1.796425,0.59916 9.984495,2.29556 11.190191,2.31837 0.976099,0.0185 0.993722,-0.0126 4.211235,-7.42145 z m 3.608563,-40.88529 C 89.281589,147.98447 86.05572,147.18498 82.879996,146.01617 66.624176,140.0333 55.166068,125.02083 53.794176,107.9078 52.006749,85.611354 66.177158,66.089939 88.13724,60.596166 c 2.545405,-0.636787 4.33249,-0.841299 8.502755,-0.973052 8.229245,-0.259988 13.951485,0.929091 20.959995,4.355481 5.04687,2.467363 8.67799,5.100039 12.6139,9.145475 9.0834,9.336173 13.54134,21.691325 12.48829,34.61123 -1.60017,19.63247 -16.06932,36.04179 -35.35284,40.09331 -3.64849,0.76656 -11.259236,1.10453 -14.549345,0.6461 z m 13.793295,-1.29851 c 13.21883,-2.62063 24.56175,-11.1226 30.64851,-22.97227 8.59207,-16.72699 5.68782,-36.912016 -7.24191,-50.332528 -6.35121,-6.592298 -13.8411,-10.793972 -22.82589,-12.804868 -2.79766,-0.62615 -4.23488,-0.746188 -8.934005,-0.746188 -4.699123,0 -6.136345,0.120038 -8.934009,0.746188 -4.393693,0.983357 -7.145337,1.988016 -11.257443,4.110228 -12.285346,6.340323 -20.880136,18.23096 -23.181807,32.071344 -0.788787,4.743124 -0.51295,12.356294 0.610672,16.854654 3.210205,12.85188 11.314457,23.16121 22.812889,29.02003 8.960371,4.56559 18.690466,5.95909 28.302993,4.05341 z M 73.931039,124.01331 c -0.225174,-0.27132 -0.58495,-0.49331 -0.799503,-0.49331 -0.61641,0 -4.331539,-4.03828 -4.331539,-4.7083 0,-0.33204 -0.15449,-0.75819 -0.343309,-0.94701 -0.188823,-0.18882 -0.296823,-0.82962 -0.24,-1.424 l 0.103309,-1.08069 16.159999,-0.16445 c 8.887999,-0.0904 15.926194,-0.19844 15.640424,-0.24 -0.466115,-0.0678 -0.540825,-1.45006 -0.726188,-13.43555 -0.113639,-7.348 -0.09583,-13.82897 0.03957,-14.402154 0.310432,-1.314083 3.580128,-5.479459 4.318458,-5.50142 0.49799,-0.01482 0.5617,0.510265 0.64828,5.343574 l 0.096,5.36 0.0717,-6.459168 c 0.0756,-6.806995 0.28719,-8.100832 1.32491,-8.100832 0.81153,0 1.05221,0.415062 1.48441,2.56 0.25129,1.247123 0.50356,1.76119 0.86569,1.76409 0.28108,0.0022 1.0512,0.722249 1.71138,1.6 0.66018,0.87775 1.60645,2.068921 2.10283,2.647046 l 0.90249,1.051133 v 13.725401 c 0,12.80273 0.13641,13.38721 -0.38599,13.52371 -0.308,0.0805 -0.086,0.50195 0.70599,0.51122 1.16642,0.0136 1.30321,-0.0382 0.72,-0.27257 l -0.72,-0.28941 v -13.13031 c 0,-8.724169 0.10969,-13.13031 0.32687,-13.13031 0.17978,0 1.25978,0.733146 2.4,1.62921 l 2.07313,1.629209 0.0664,3.410791 0.0664,3.41079 0.10579,-2.974726 c 0.0759,-2.133428 0.22866,-3.021876 0.54024,-3.14144 0.32907,-0.126276 4.01803,1.447283 4.40917,1.880774 0.0374,0.04147 0.14964,4.395392 0.24938,9.675392 l 0.18136,9.6 0.0706,-9.37004 c 0.0549,-7.287938 0.16204,-9.405128 0.48205,-9.527925 0.22628,-0.08683 1.27028,0.102938 2.32,0.421712 l 1.90857,0.579591 0.20026,2.228329 c 0.11013,1.225584 0.21813,5.573973 0.24,9.663093 l 0.0397,7.43477 -5.04,-0.0748 -5.04,-0.0748 -0.16505,-4.32 -0.16506,-4.32 -0.15494,4.48 c -0.0852,2.464 -0.14699,4.51195 -0.13728,4.551 0.01,0.039 2.45772,0.11105 5.44,0.16 l 5.19031,0.26301 0.14612,0.90032 c -0.22989,2.87602 -2.45784,5.80666 -5.47496,7.20172 -1.46293,0.67644 -1.74123,0.68497 -25.348942,0.77726 -21.188194,0.0828 -23.915768,0.0379 -24.27918,-0.4 z m 48.326451,-0.68815 c 2.25327,-0.66915 4.15099,-2.23081 5.1825,-4.26474 1.6106,-3.17577 1.69219,-2.76632 -4.32,-2.90436 -2.86,-0.0657 -6.37528,-0.14221 -7.95353,-0.0992 -3.06492,0.0835 -5.63859,-0.32556 -6.94091,-1.34208 l -0.73445,-0.9793 -0.13948,-15.187725 c -0.13007,-14.162234 -0.38133,-18.646083 -1.11105,-19.826797 -0.15718,-0.254317 -0.40161,-0.346717 -0.54318,-0.205338 -0.41155,0.411002 -0.76032,16.893309 -0.5467,25.83613 0.21058,8.81528 0.15537,9.21635 -1.47123,10.68904 -0.68417,0.61943 -1.23551,0.64234 -17.792757,0.73944 l -17.086706,0.10021 v 0.76091 c 0,0.4185 0.144,0.84991 0.32,0.95868 0.175999,0.10877 0.319999,0.48796 0.319999,0.84264 0,0.70334 3.373997,4.43736 4.00953,4.43736 0.215657,0 0.574899,0.22025 0.798313,0.48945 0.358189,0.43159 3.128045,0.48518 23.430796,0.45336 19.047745,-0.0299 23.293045,-0.11581 24.578855,-0.49765 z m -19.05976,-8.7615 c 0.11211,-0.18139 -0.0164,-0.23504 -0.30111,-0.12576 -0.55438,0.21273 -0.65581,0.4421 -0.19551,0.4421 0.16561,0 0.38909,-0.14235 0.49662,-0.31634 z m -0.99756,-0.7664 c 1.03932,-0.43425 1.06364,-0.49035 1.26972,-2.92828 0.2425,-2.86874 0.21054,-12.206385 -0.0732,-21.400257 l -0.19666,-6.371277 -1.52,1.848039 -1.52,1.848038 v 13.723237 c 0,15.16201 -0.14855,14.19501 2.04018,13.2805 z m 6.51619,-0.11726 c -0.27655,-0.308 -0.56529,-0.992 -0.64165,-1.52 l -0.13882,-0.96 -0.048,0.9348 c -0.0413,0.80486 1.43624,2.56924 1.92531,2.56924 0.088,0 -0.82036,-0.71604 -1.09689,-1.02404 z m 3.53373,-12.6763 -0.16233,-13.236292 -1.56388,-1.954518 -1.56389,-1.954519 -0.0919,13.670816 c -0.0506,7.518943 -0.006,14.149333 0.0989,14.734203 0.14383,0.80163 0.44214,1.1727 1.2119,1.50747 0.56161,0.24425 1.29391,0.44973 1.62732,0.45662 0.58794,0.0122 0.60132,-0.38644 0.44389,-13.22378 z m 5.1899,2.22352 V 92.214442 l -1.64822,-1.312333 c -0.90652,-0.721783 -1.70969,-1.250861 -1.78483,-1.175728 -0.0751,0.07514 -0.0322,5.542009 0.0955,12.148619 l 0.23209,12.012 1.15274,0.12271 c 0.63401,0.0675 1.33274,0.14691 1.55274,0.1765 0.3133,0.0421 0.4,-2.33341 0.4,-10.95899 z m 5.44,2.41744 c 0,-4.55143 -0.0879,-8.907431 -0.1954,-9.679998 -0.18237,-1.311043 -0.29967,-1.451289 -1.76,-2.104268 l -1.5646,-0.699604 v 10.3796 10.37961 h 1.76 1.76 z m 5.44,5.12664 c 0,-1.73179 -0.0943,-5.75194 -0.20954,-8.93368 l -0.20955,-5.784983 -1.09318,-0.205082 c -0.60124,-0.112793 -1.29895,-0.284045 -1.55045,-0.380553 -0.38991,-0.149626 -0.45728,1.19663 -0.45728,9.138758 V 113.92 h 1.76 1.76 z M 104.55692,106.8 c -0.0625,-1.1 -0.11361,-0.2 -0.11361,2 0,2.2 0.0511,3.1 0.11361,2 0.0625,-1.1 0.0625,-2.9 0,-4 z m 3.51829,-13.28 c -0.0659,-0.836 -0.11986,-0.152 -0.11986,1.52 0,1.672 0.0539,2.356 0.11986,1.52 0.0659,-0.836 0.0659,-2.204 0,-3.04 z m -40.0133,15.84 c -0.10671,-3.036 -0.09229,-6.456 0.03204,-7.6 l 0.226052,-2.08 2.159999,-0.09462 2.16,-0.09462 v 7.69462 7.69462 h -2.192035 -2.192035 z m 3.938086,-2.17753 v -7.05754 l -1.52,0.0975 -1.519999,0.0975 -0.08624,6.96 -0.08624,6.96 h 1.606239 1.60624 z m 1.28,0.0236 v -7.673901 l 0.72,-0.179097 c 0.396,-0.09851 1.367392,-0.209248 2.15865,-0.246096 l 1.438646,-0.067 0.213318,1.600004 c 0.117325,0.88 0.225933,4.444 0.241351,7.92 l 0.02803,6.32001 h -2.4 -2.4 v -7.6739 z m 4.054259,0.13139 c -0.114211,-3.79639 -0.317145,-7.08115 -0.45096,-7.29948 -0.177299,-0.289286 -0.612224,-0.321475 -1.603299,-0.118656 l -1.36,0.278316 v 7.02117 7.02117 h 1.81096 1.81096 z m 1.140311,-0.66891 0.08543,-8.239693 1.839594,-0.448832 c 2.995804,-0.730931 2.823068,-1.258944 2.725734,8.331955 l -0.08533,8.40801 -2.32543,0.0941 -2.325431,0.0941 0.08543,-8.23969 z m 3.946249,5.7556 c 0.254822,-2.03953 0.01299,-13.457021 -0.291472,-13.761491 -0.107994,-0.107994 -0.811277,-0.06671 -1.562851,0.09175 l -1.366496,0.288112 -0.08579,7.598729 -0.08579,7.59874 h 1.582768 1.582765 l 0.22687,-1.81582 z m 1.3252,2.25518 C 83.44526,114.37859 83.463356,97.534714 83.764895,97.104797 84.037909,96.715562 87.237052,95.36 87.882668,95.36 c 0.31399,0 0.449676,0.518931 0.48111,1.84 l 0.04379,1.84 0.222332,-1.943373 c 0.122278,-1.068854 0.33446,-2.124803 0.471507,-2.346553 C 89.464402,94.162739 92.683551,92.16 93.264622,92.16 c 0.437872,0 0.495373,1.32025 0.495373,11.37402 v 11.37402 l -2.32,-0.094 -2.32,-0.094 -0.153267,-6.4 -0.153267,-6.4 -0.166733,6.4 -0.166732,6.4 -2.253981,0.0927 c -1.23969,0.051 -2.35569,-0.009 -2.48,-0.13334 z m 3.933981,-9.43358 c 0,-7.061526 -0.08595,-8.962211 -0.4,-8.845219 -0.22,0.08195 -0.94,0.342291 -1.6,0.578518 l -1.2,0.429511 v 8.41571 8.41572 h 1.6 1.6 z M 93.119995,103.68 c 0,-5.808 -0.108,-10.556429 -0.24,-10.552067 -0.132,0.0044 -0.924,0.509763 -1.76,1.12311 l -1.52,1.115175 v 5.546652 c 0,3.05066 0.09413,7.29726 0.209178,9.43689 l 0.209174,3.89024 h 1.550826 1.550822 z m 0.96,-0.61294 V 91.254118 l 2.093271,-1.837788 c 1.203206,-1.056356 2.206703,-1.71417 2.360041,-1.54706 0.146726,0.159901 0.347818,6.30273 0.44687,13.65073 l 0.180096,13.36 h -2.540137 -2.540141 z m 4.365587,9.206 c -0.113072,-1.08182 -0.205587,-6.69782 -0.205587,-12.480001 0,-8.378512 -0.08393,-10.513059 -0.413373,-10.513059 -0.227357,0 -1.019356,0.61745 -1.76,1.372112 l -1.346627,1.372112 v 10.894556 c 0,5.992 0.096,10.99055 0.213335,11.10789 0.117331,0.11733 1.001846,0.21333 1.965584,0.21333 h 1.752252 z"
     id="path3690"
     inkscape:connector-curvature="0"
     sodipodi:nodetypes="scccccccsssssccssscsscsccscccscsccscsscscscscscscscscssscsccsccccccsccscccsccccccsccsccscscscscccsccscccsccscscsccccssccccscsscccscccccscsscccccccccscccccccccsccsccccscccsssccccsssccssssscsccscsscsscsssccsssscsscssscccsccsccccssscccccccscsccsscccccccsssssssssssssssssssssscsscccccscccccsccsccsccccssscccccccccscccccccccccsccccccccccccsccscscscssccccccscccccccsccccccsccccccccccccccscccccccscscccccssccscscccssscssscssccccccccsccccccccccccccsscccccscccccccsccsscccccccccccccccccsccccssccccccccccscccccccsscscsacccsccscsccccsssscscscs" />
  <g
     inkscape:groupmode="layer"
     id="layer2"
     inkscape:label="Ricalco">
    <path
       style="fill:none;stroke:#000000;stroke-width:1px;stroke-linecap:butt;stroke-linejoin:miter;stroke-opacity:1"
       d="m 128.01624,95.873133 0.81207,18.793507 c 0,0 -4.64037,0.40603 -4.52437,0 0.11601,-0.40604 0.058,-19.895595 0.058,-19.895595 z"
       id="path4517"
       inkscape:connector-curvature="0" />
    <path
       style="fill:#ff0000;stroke-width:0.05800464"
       d="m 124.89948,105.09537 c 0.0217,-8.647938 0.0361,-9.314135 0.2046,-9.482621 0.0472,-0.0472 2.28568,0.587723 2.37026,0.672309 0.031,0.03099 0.76612,16.525672 0.77008,17.278982 l 0.002,0.33353 h -1.68441 -1.68441 z"
       id="path4519"
       inkscape:connector-curvature="0" />
    <path
       style="fill:#ff0000;stroke-width:0.05800464"
       d="M 119.37146,103.54617 V 93.194765 l 0.39154,0.177396 c 0.21534,0.09757 0.61777,0.277728 0.89428,0.400355 0.68107,0.302039 1.19594,0.564939 1.39903,0.71437 0.2088,0.15363 0.41287,0.503995 0.49598,0.851522 0.20832,0.871155 0.29732,4.678522 0.29856,12.773202 l 8.9e-4,5.78596 h -1.74014 -1.74014 z"
       id="path4521"
       inkscape:connector-curvature="0" />
    <path
       style="fill:#ff0000;stroke-width:0.05800464"
       d="m 115.48515,113.9917 -1.07308,-0.12313 -0.042,-0.37703 c -0.0445,-0.39928 -0.23819,-10.69725 -0.34203,-18.184458 -0.059,-4.252209 -0.0433,-5.539443 0.0673,-5.539443 0.11007,0 1.19214,0.775195 2.22078,1.590969 l 1.09186,0.865911 -0.0252,9.922951 c -0.0248,9.74906 -0.0506,11.13006 -0.21989,11.7646 -0.0571,0.21395 -0.0625,0.2174 -0.33132,0.21014 -0.15031,-0.004 -0.75618,-0.0628 -1.34638,-0.13051 z"
       id="path4523"
       inkscape:connector-curvature="0" />
    <path
       style="fill:#ff0000;stroke-width:0.05800464"
       d="m 111.03237,114.03965 c -1.04922,-0.31023 -1.59593,-0.65165 -1.83898,-1.14842 -0.29512,-0.6032 -0.29289,-0.50169 -0.27676,-12.56675 0.008,-6.17314 0.0344,-12.377707 0.058,-13.787923 l 0.043,-2.564028 1.51925,1.90055 1.51926,1.900549 0.0922,6.985985 c 0.0507,3.842291 0.10772,9.361277 0.12673,12.264407 0.0353,5.39874 0.006,6.51567 -0.18007,6.96209 -0.078,0.1866 -0.10261,0.20125 -0.33366,0.19839 -0.13722,-0.002 -0.46524,-0.0669 -0.72895,-0.14485 z"
       id="path4525"
       inkscape:connector-curvature="0" />
    <path
       style="fill:#ff0000;stroke-width:0.05800464"
       d="m 79.841303,123.75462 c -3.103833,-0.0405 -4.537013,-0.10579 -5.134112,-0.23385 -0.20493,-0.0439 -0.380439,-0.1383 -0.589961,-0.31714 -0.185431,-0.15828 -0.414518,-0.28838 -0.60562,-0.34394 -0.393034,-0.11426 -0.966918,-0.57234 -1.779893,-1.42075 -1.118284,-1.16702 -2.244243,-2.62616 -2.244243,-2.90833 0,-0.28647 -0.142545,-0.71491 -0.296002,-0.88969 -0.27072,-0.30833 -0.342049,-0.54892 -0.342049,-1.15373 v -0.54636 l 1.464617,-0.0345 c 0.80554,-0.019 4.936195,-0.049 9.179235,-0.0667 10.247827,-0.0428 19.281485,-0.13017 20.997675,-0.20307 2.26841,-0.0964 2.71439,-0.1805 3.24408,-0.61198 0.4005,-0.32625 0.85751,-0.88473 1.03941,-1.27019 0.49687,-1.05291 0.53935,-2.24319 0.38962,-10.91509 -0.0692,-4.010024 -0.0714,-5.706055 -0.0128,-10.063805 0.093,-6.915576 0.20076,-10.483592 0.38928,-12.891829 0.11159,-1.425504 0.19839,-1.613928 0.5716,-1.240726 0.24163,0.241636 0.40158,0.729548 0.5569,1.69877 0.42584,2.657274 0.55928,7.278161 0.72076,24.95818 l 0.077,8.42666 0.15068,0.21743 c 0.44019,0.63519 0.71097,0.90715 1.12442,1.1293 0.55699,0.29928 1.26877,0.53621 2.12614,0.70773 1.23449,0.24696 1.68503,0.27508 4.70413,0.29355 4.02313,0.0246 10.26686,0.13753 11.30352,0.20443 1.23784,0.0799 1.5439,0.23948 1.45608,0.75929 -0.0592,0.35015 -1.1255,2.44412 -1.54426,3.03246 -0.76939,1.08095 -1.93015,2.06229 -3.15269,2.66535 -1.40892,0.695 -1.98245,0.78749 -5.62645,0.90736 -4.11389,0.13533 -30.442769,0.21204 -38.167057,0.1112 z"
       id="path4527"
       inkscape:connector-curvature="0" />
    <path
       style="fill:#ff0000;stroke-width:0.05800464"
       d="m 100.69626,114.07387 c -0.14362,-0.14362 -0.27098,-0.5875 -0.35015,-1.22038 -0.13046,-1.04298 -0.17087,-4.58403 -0.1725,-15.117195 l -0.002,-10.911855 1.49362,-1.814199 1.49362,-1.814199 0.0403,0.980114 c 0.0486,1.181102 0.1947,6.032443 0.28985,9.622805 0.0987,3.72605 0.0984,15.055039 -5.3e-4,16.444319 -0.17785,2.49826 -0.29426,2.98991 -0.77325,3.26584 -0.48004,0.27654 -1.4849,0.67847 -1.69621,0.67847 -0.13062,0 -0.25213,-0.0428 -0.32308,-0.11372 z"
       id="path4529"
       inkscape:connector-curvature="0" />
    <path
       style="fill:#ff0000;stroke-width:0.05800464"
       d="m 95.390174,114.12324 c -0.18942,-0.0276 -0.369355,-0.0752 -0.399856,-0.10566 -0.0305,-0.0305 -0.07713,-0.38973 -0.103628,-0.79829 -0.06873,-1.05988 -0.163825,-10.36347 -0.165648,-16.206405 l -0.0015,-4.96473 1.145591,-1.127296 c 1.062278,-1.045313 1.800009,-1.649916 1.952393,-1.600072 0.114383,0.03741 0.202513,0.429907 0.265775,1.18364 0.03664,0.436589 0.08435,4.074954 0.115821,8.833838 0.05983,9.045815 0.122355,11.957855 0.292351,13.615405 0.06291,0.6134 0.11438,1.14196 0.11438,1.17459 0,0.0731 -2.708531,0.0689 -3.21563,-0.005 z"
       id="path4531"
       inkscape:connector-curvature="0" />
    <path
       style="fill:#ff0000;stroke-width:0.05800464"
       d="m 90.020377,113.94107 c -4.08e-4,-0.13558 -0.05145,-1.17314 -0.113432,-2.30568 -0.18884,-3.45059 -0.249557,-6.12912 -0.256354,-11.30906 l -0.0065,-4.957543 1.13109,-0.825078 c 1.383474,-1.009179 2.019927,-1.406207 2.085119,-1.300725 0.148267,0.239901 0.232078,5.18712 0.233711,13.795536 l 0.0014,7.14907 H 91.55824 90.021117 Z"
       id="path4533"
       inkscape:connector-curvature="0" />
    <path
       style="fill:#ff0000;stroke-width:0.05800464"
       d="m 84.510676,105.81296 v -8.374634 l 0.159513,-0.06311 c 0.763292,-0.301982 2.604371,-0.935002 2.658715,-0.914149 0.24743,0.09495 0.310076,2.240475 0.31223,10.693463 l 0.0018,7.03306 h -1.566126 -1.566125 z"
       id="path4535"
       inkscape:connector-curvature="0" />
    <path
       style="fill:#ff0000;stroke-width:0.05800464"
       d="m 79.058973,113.73806 c 0.0022,-1.32945 0.174905,-14.652633 0.190173,-14.667901 0.06728,-0.06728 2.117232,-0.427048 2.43524,-0.427389 0.482288,-5.17e-4 0.472544,-0.01833 0.558006,1.020185 0.147973,1.798135 0.203486,3.990385 0.206228,8.144125 0.0028,4.23495 -0.0014,4.40996 -0.127508,5.30743 -0.07172,0.51044 -0.130449,0.9607 -0.13051,1.00058 -8.6e-5,0.0562 -0.352066,0.0725 -1.566237,0.0725 H 79.05824 Z"
       id="path4537"
       inkscape:connector-curvature="0" />
    <path
       style="fill:#ff0000;stroke-width:0.05800464"
       d="m 73.921355,107.20791 v -6.97967 l 0.768562,-0.15923 c 0.422709,-0.08758 0.97965,-0.187563 1.237646,-0.222192 0.42203,-0.05665 0.491587,-0.05185 0.693398,0.04784 0.150616,0.0744 0.237889,0.163422 0.265636,0.270982 0.151423,0.58695 0.33532,4.13794 0.484347,9.35258 0.04741,1.65893 0.102526,3.3882 0.12248,3.84281 l 0.03628,0.82656 H 75.72553 73.921356 Z"
       id="path4539"
       inkscape:connector-curvature="0" />
    <path
       style="fill:#ff0000;stroke-width:0.05800464"
       d="m 68.817558,113.82506 c 0.0017,-1.01352 0.175217,-13.46328 0.187771,-13.47318 0.02632,-0.0207 2.908303,-0.19831 2.926323,-0.18029 0.0096,0.01 0.01755,3.1672 0.01755,7.01678 v 6.99922 h -1.566126 -1.566125 z"
       id="path4541"
       inkscape:connector-curvature="0" />
    <path
       style="fill:#ff0000;stroke-width:0.05800464"
       d="m 15.400159,147.04419 c -0.292452,-0.80823 -0.284069,-0.83871 0.415844,-1.51224 0.752915,-0.72453 2.711203,-2.49077 6.373827,-5.74877 3.246723,-2.88804 5.03779,-4.52106 5.03779,-4.59326 0,-0.0572 -0.09676,-0.31732 -0.897217,-2.41184 -0.713558,-1.86715 -1.272396,-3.47741 -2.063366,-5.94548 -0.800107,-2.49658 -1.014012,-2.91932 -1.55599,-3.07507 -0.276211,-0.0794 -2.069762,-0.28345 -5.083195,-0.57835 C 8.32568,122.26883 6.8835201,122.11211 6.7675658,121.99894 6.3200823,121.56222 5.0677393,111.08189 5.269793,109.4647 l 0.039736,-0.31803 0.4747066,-0.18357 c 0.8392219,-0.32452 3.4573703,-1.18993 7.1162384,-2.3522 4.05032,-1.28663 7.272996,-2.34873 7.530222,-2.48174 0.141443,-0.0731 0.186493,-0.14699 0.238976,-0.39171 0.177812,-0.8291 0.347277,-2.51556 0.88074,-8.764795 0.266436,-3.121162 0.295008,-3.592698 0.221799,-3.660391 -0.04622,-0.04274 -3.28154,-1.885197 -7.189603,-4.094356 -3.908062,-2.209159 -7.1134131,-4.024005 -7.123001,-4.03299 -0.028086,-0.02632 1.1280931,-4.302306 1.5058632,-5.569251 1.1604758,-3.891943 2.0848908,-6.374778 2.4665878,-6.624876 0.196263,-0.128596 0.204768,-0.128062 2.413229,0.151466 4.67465,0.591679 13.588134,1.522997 13.799618,1.441844 0.05017,-0.01925 0.489902,-0.81353 0.977179,-1.765061 1.189903,-2.323581 2.062246,-3.893434 3.709168,-6.674951 l 0.489406,-0.826566 23.639096,4.5e-4 23.639096,4.5e-4 -1.508121,0.7476 c -6.42884,3.186878 -11.783567,7.578662 -15.990125,13.114609 -4.719889,6.211507 -7.72211,13.669621 -8.661207,21.516162 -0.385006,3.216876 -0.415304,6.844016 -0.08429,10.090696 0.600169,5.88664 2.350087,11.50982 5.194567,16.69219 3.522636,6.41791 8.524932,11.85656 14.610662,15.88516 4.085882,2.70475 8.414809,4.65179 13.225058,5.94828 l 0.812065,0.21888 -36.058899,0.004 -36.058899,0.004 -0.1795,-0.49607 z"
       id="path4543"
       inkscape:connector-curvature="0" />
    <path
       style="fill:#ff0000;stroke-width:0.15289208"
       d="m 82.701606,196.36272 c -2.698606,-0.47485 -7.255931,-1.49027 -8.904648,-1.98405 l -1.260045,-0.37735 -0.03954,-8.27864 -0.03954,-8.27863 -3.24833,-1.40998 c -1.78658,-0.77549 -3.990932,-1.76097 -4.898558,-2.18997 -0.907625,-0.42898 -1.766221,-0.77998 -1.907991,-0.77998 -0.324485,0 -2.450364,1.77531 -6.738625,5.62738 -3.767247,3.38405 -5.815898,5.07507 -6.148412,5.07507 -0.61022,0 -7.13659,-4.60435 -10.143547,-7.15625 l -0.519453,-0.44085 3.027656,-6.63633 c 1.665211,-3.64999 3.186036,-6.99283 3.379611,-7.42854 l 0.351956,-0.79219 -3.44065,-3.77682 c -1.892357,-2.07725 -3.690848,-4.06444 -3.996647,-4.41598 l -0.555997,-0.63915 -5.514319,1.81572 c -5.354929,1.76324 -9.975508,3.17295 -10.399905,3.17295 -0.35707,0 -6.091452,-9.49231 -5.86536,-9.70912 0.02668,-0.0256 16.113638,-0.0954 35.748803,-0.15523 l 35.7003,-0.10873 2.293381,0.46869 c 3.965682,0.81044 6.987831,0.97185 11.820494,0.6313 4.59902,-0.32408 7.63041,-0.9242 11.57189,-2.29088 10.72929,-3.7203 19.88738,-11.76318 25.06601,-22.01361 2.54558,-5.03866 3.95637,-9.76894 4.60555,-15.4421 0.34519,-3.01669 0.23274,-8.67695 -0.22934,-11.543352 -1.25663,-7.795236 -4.30273,-14.718688 -9.18204,-20.869768 -1.51882,-1.914705 -5.37144,-5.797818 -7.1878,-7.244701 -5.84968,-4.659764 -13.68477,-8.180627 -20.44338,-9.186666 -4.2463,-0.632073 -11.345275,-0.599496 -15.232886,0.0699 -2.317489,0.399042 -5.680429,1.372055 -8.220472,2.378461 L 80.04414,63.287611 H 56.497721 32.951301 l 0.466463,-0.996808 c 0.29799,-0.636792 0.433067,-1.119966 0.373999,-1.337805 -0.05086,-0.18755 -1.715399,-2.542644 -3.698988,-5.233545 -5.220228,-7.081669 -5.741621,-7.852705 -5.551021,-8.208843 0.486978,-0.909926 4.600418,-5.616961 6.849947,-7.838437 l 1.232114,-1.216749 0.652609,0.31824 c 0.358936,0.175033 3.460118,1.943795 6.891518,3.930583 3.431399,1.986789 6.359191,3.612343 6.506203,3.612343 0.387869,0 1.247876,-0.579655 4.780048,-3.221809 1.734318,-1.297314 3.814752,-2.840362 4.623191,-3.428996 0.808438,-0.588635 1.499265,-1.146685 1.535175,-1.240111 0.03591,-0.09343 -0.68297,-3.602301 -1.597508,-7.797496 -0.914538,-4.195196 -1.682726,-7.799633 -1.707084,-8.00986 -0.0392,-0.338362 0.104864,-0.460082 1.255296,-1.06057 1.628057,-0.849793 7.369963,-3.373924 8.767999,-3.854395 l 1.04695,-0.359811 0.535008,0.611568 c 0.862339,0.985742 2.265513,2.836244 4.811223,6.345021 1.311715,1.807949 2.877244,3.924007 3.478952,4.702353 l 1.094018,1.415173 0.644255,-0.100559 c 0.35434,-0.05531 1.33227,-0.259057 2.173176,-0.452778 1.7378,-0.400335 5.776029,-1.263162 8.224395,-1.75726 0.937412,-0.189177 1.806964,-0.456429 2.013391,-0.618805 0.433917,-0.341319 0.482343,-0.536891 2.303717,-9.303807 0.725017,-3.489762 1.385204,-6.413823 1.467082,-6.497913 0.16786,-0.172396 10.269721,-0.307005 11.541871,-0.153797 l 0.78194,0.09417 0.55536,2.552532 c 0.30545,1.403893 0.85924,4.066164 1.23065,5.916158 1.02869,5.123925 1.47311,7.008724 1.71716,7.282503 0.26841,0.301111 1.3746,0.612702 3.72424,1.04904 0.96705,0.179583 3.28066,0.666101 5.14137,1.081148 1.86071,0.415048 3.65206,0.754632 3.98078,0.754632 0.69641,0 0.2566,0.527768 4.84161,-5.809899 3.67957,-5.0861 5.22238,-7.033061 5.57307,-7.032958 0.55757,1.68e-4 4.78422,1.77252 8.49185,3.560871 l 2.57215,1.240658 -0.0987,0.542369 c -0.0543,0.298303 -0.81616,3.830195 -1.69302,7.848648 -0.87685,4.018453 -1.59429,7.462786 -1.59429,7.654074 0,0.383291 0.0753,0.446166 2.73917,2.288189 0.97413,0.67359 2.87197,2.063063 4.21742,3.087718 2.67438,2.036721 3.61974,2.673998 3.96675,2.673998 0.12483,0 0.90022,-0.387699 1.72307,-0.861553 2.64897,-1.525439 11.88713,-6.970145 12.06309,-7.109636 0.36184,-0.286834 8.01042,8.153732 8.24859,9.102704 0.14462,0.576197 -0.48098,1.610331 -3.16128,5.225635 -5.72478,7.72183 -6.25676,8.483593 -6.11215,8.752252 0.0759,0.140939 0.65898,1.13583 1.29582,2.21087 0.63683,1.07504 1.71907,3.00148 2.40498,4.280978 0.68592,1.279498 1.53013,2.834578 1.87603,3.455733 l 0.62892,1.129374 1.68181,-0.09127 c 0.925,-0.0502 3.91133,-0.336119 6.63629,-0.63538 2.72497,-0.299261 5.65927,-0.587234 6.52068,-0.63994 l 1.56621,-0.09583 0.24263,0.469182 c 0.66971,1.295083 3.2677,9.91129 3.34168,11.082659 l 0.0396,0.626343 -1.45248,0.865292 c -0.79886,0.47591 -3.92932,2.258105 -6.95659,3.960433 -3.02726,1.70233 -5.56782,3.156537 -5.6457,3.231573 -0.12278,0.118297 0.69299,10.802352 0.94201,12.337582 l 0.0807,0.49759 3.53462,1.13669 c 1.94403,0.62518 5.22025,1.66086 7.28047,2.30151 2.06022,0.64064 3.97775,1.23771 4.26118,1.32682 l 0.51532,0.16202 -0.1034,1.5492 c -0.21557,3.23012 -1.24908,10.94264 -1.49996,11.19353 -0.15291,0.15291 -2.68245,0.5182 -6.24335,0.90161 -4.7487,0.51131 -9.8745,1.14029 -10.14809,1.24528 -0.11615,0.0446 -0.45679,0.78105 -0.75698,1.63663 -2.31485,6.59729 -3.14863,9.06493 -3.14863,9.31849 0,0.42367 1.58074,2.01036 5.57584,5.59684 1.93148,1.73393 4.14856,3.76105 4.92684,4.50472 l 1.41504,1.35213 -0.23239,0.55902 c -0.54673,1.31518 -3.55555,6.55543 -5.39089,9.38891 -0.82777,1.27795 -0.88741,1.33406 -1.32545,1.24679 -0.25227,-0.0503 -3.84675,-1.21261 -7.98772,-2.583 l -7.52905,-2.49162 -1.70041,1.93285 c -0.93523,1.06306 -2.72447,3.01051 -3.97608,4.32766 -1.25162,1.31715 -2.27567,2.46219 -2.27567,2.54454 0,0.0823 1.51281,3.46048 3.3618,7.50699 l 3.3618,7.35727 -0.57152,0.51477 c -1.97278,1.77693 -7.45834,5.71152 -9.6686,6.93493 l -0.84091,0.46546 -3.74585,-3.4462 c -5.23783,-4.81881 -7.96148,-7.23672 -8.35245,-7.41487 -0.27547,-0.12551 -0.85721,0.079 -3.29167,1.15726 -1.62639,0.72033 -3.92029,1.71083 -5.09756,2.20111 l -2.14049,0.89142 -0.0396,8.29449 -0.0395,8.29448 -0.41913,0.16013 c -1.15964,0.44302 -7.45954,1.81629 -10.84061,2.36307 l -1.50411,0.24325 -0.47873,-0.55105 c -0.51148,-0.58878 -1.00245,-1.64078 -4.39157,-9.4099 l -2.16762,-4.96899 h -5.864624 -5.86463 l -2.427344,5.58056 c -3.700754,8.50817 -4.14123,9.35079 -4.869375,9.3149 -0.128448,-0.006 -1.196762,-0.18099 -2.374031,-0.38816 z"
       id="path4545"
       inkscape:connector-curvature="0" />
    <path
       style="fill:#ff0000;stroke-width:0.15289208"
       d="m 110.84575,196.31624 c -0.4783,-0.49922 -1.72858,-3.13507 -4.5205,-9.53005 l -2.18605,-5.00722 H 98.233313 92.32743 l -1.208936,2.79028 c -2.728559,6.29764 -4.659458,10.54297 -5.125757,11.26963 -0.431364,0.67222 -0.559495,0.77062 -1.003509,0.77062 -1.043479,0 -7.109306,-1.23269 -10.658463,-2.166 l -1.796482,-0.47241 v -8.29261 -8.2926 l -0.77776,-0.32323 c -0.427769,-0.17777 -2.659884,-1.15862 -4.960255,-2.17965 -3.006227,-1.33432 -4.283746,-1.831 -4.542522,-1.76605 -0.432767,0.10861 -2.254326,1.61671 -6.157003,5.09746 -3.932342,3.50723 -6.017757,5.23556 -6.447266,5.34337 -0.265219,0.0666 -0.696798,-0.12303 -1.661167,-0.72977 -2.614201,-1.64474 -8.472939,-6.00392 -8.829955,-6.5699 -0.118664,-0.18813 0.610685,-1.92518 3.167268,-7.54334 1.826789,-4.01443 3.28844,-7.37853 3.248113,-7.47581 -0.06713,-0.16192 -6.620913,-7.42806 -7.566898,-8.38937 l -0.408395,-0.41501 -6.039237,1.95586 c -7.223328,2.33934 -9.505519,3.00713 -9.839284,2.87905 -0.288797,-0.11082 -1.566192,-2.05196 -3.641614,-5.53381 -1.679939,-2.81837 -2.169942,-3.74097 -2.050369,-3.86055 0.04678,-0.0468 13.141054,-0.13111 29.098384,-0.1874 l 29.013327,-0.10235 -29.244394,-0.0271 -29.244394,-0.0271 -0.149108,-0.39219 c -0.357185,-0.93947 -0.399788,-0.89049 4.934554,-5.67274 2.796014,-2.50663 5.487393,-4.94133 5.980841,-5.41045 l 0.897182,-0.85293 -1.070219,-2.8947 c -0.588621,-1.59209 -1.397496,-3.89233 -1.7975,-5.11164 -0.978944,-2.98407 -1.155985,-3.31547 -1.869933,-3.5003 -0.315274,-0.0816 -3.738093,-0.46517 -7.606263,-0.85233 -8.9264636,-0.89345 -8.1449797,-0.75842 -8.3251777,-1.43848 -0.3300523,-1.24561 -1.0508891,-7.06882 -1.3101372,-10.58382 -0.080766,-1.09505 -0.055703,-1.35634 0.1498118,-1.56185 0.135742,-0.13575 2.4975146,-0.97576 5.2483831,-1.86671 7.135565,-2.31105 9.562181,-3.11863 9.772913,-3.25243 0.257464,-0.16347 0.442602,-1.56465 0.882847,-6.68159 0.209813,-2.438628 0.419099,-4.820644 0.465084,-5.293368 l 0.08361,-0.859498 -2.031191,-1.145101 C 13.858786,86.751548 7.7687328,83.27492 7.6570615,83.168157 c -0.1550863,-0.14827 1.3101761,-5.489709 2.3709405,-8.642978 0.763326,-2.269093 1.21622,-3.339685 1.482377,-3.504178 0.07551,-0.04667 0.953715,0.01618 1.951559,0.139668 7.568544,0.936642 14.077532,1.559973 14.267706,1.366345 0.07688,-0.07828 0.703601,-1.208747 1.392709,-2.512152 0.689106,-1.303405 1.801535,-3.315847 2.472063,-4.472093 l 1.21914,-2.102266 23.415104,0.003 23.415105,0.003 -2.057211,1.073865 c -13.736706,7.17056 -22.5206,20.362272 -23.866959,35.843552 -0.24273,2.79106 -0.101175,7.59571 0.303104,10.28792 2.485221,16.5498 14.012113,30.40899 29.704338,35.71458 3.774618,1.27622 6.057665,1.8233 9.290774,2.22634 1.645503,0.20513 6.859447,0.20612 9.253979,0.002 10.58841,-0.90363 19.87528,-5.24067 27.45742,-12.82281 5.79641,-5.79641 9.89734,-12.93744 11.83069,-20.60103 0.88637,-3.51344 1.18437,-5.83597 1.26548,-9.8626 0.0463,-2.2992 0.006,-4.564 -0.10379,-5.803561 -0.29659,-3.354464 -1.22672,-7.370305 -2.53381,-10.939778 -1.3473,-3.679273 -4.25801,-8.838719 -6.79915,-12.051999 -1.55958,-1.972099 -6.45381,-6.767762 -8.28788,-8.120982 -6.35409,-4.688188 -14.06059,-7.874471 -20.83893,-8.61594 -4.04598,-0.442581 -10.560369,-0.329277 -13.831065,0.240562 -2.7029,0.470914 -5.905243,1.415233 -9.055766,2.670396 l -1.508032,0.600799 H 56.461184 c -18.666137,0 -23.389276,-0.0387 -23.32431,-0.191115 0.04481,-0.105113 0.233937,-0.543122 0.420294,-0.973352 0.209013,-0.482534 0.302425,-0.921875 0.243809,-1.146691 -0.09211,-0.353303 -1.9582,-2.998954 -6.242262,-8.849994 -1.13906,-1.555694 -2.292037,-3.187736 -2.562172,-3.626761 l -0.491153,-0.798227 0.450166,-0.654294 c 0.715125,-1.0394 3.738302,-4.453675 5.830547,-6.584832 l 1.919794,-1.955497 6.039237,3.460912 c 6.631561,3.800356 7.64997,4.34883 8.074942,4.34883 0.157391,0 0.795766,-0.356755 1.418612,-0.792788 1.554972,-1.088584 9.465064,-6.983029 9.465064,-7.053177 0,-0.140421 -1.003303,-4.952867 -2.139912,-10.264311 l -1.241683,-5.802464 0.352992,-0.270687 c 0.634455,-0.486524 7.329815,-3.500573 9.575891,-4.310778 l 1.081983,-0.390293 0.63931,0.720185 c 0.621136,0.699713 1.457252,1.809443 6.693546,8.883973 2.010904,2.716846 2.571088,3.379564 2.856684,3.379564 0.195395,0 1.957129,-0.347733 3.914967,-0.772739 1.957837,-0.425008 4.548275,-0.978325 5.756531,-1.229592 2.699606,-0.561407 3.315064,-0.794293 3.525639,-1.334074 0.252189,-0.646454 0.407034,-1.320688 1.696353,-7.386402 0.667901,-3.1422 1.327768,-6.208697 1.466372,-6.814437 l 0.252006,-1.101346 0.63481,-0.09031 c 0.349146,-0.04967 3.109589,-0.07008 6.134317,-0.04534 l 5.499512,0.04497 0.95852,4.586762 c 2.49322,11.930667 2.27268,11.117106 3.1037,11.449617 0.33588,0.13439 1.93501,0.516553 3.55362,0.84925 1.61861,0.332696 4.09676,0.84922 5.507,1.147831 1.41025,0.29861 2.86826,0.542927 3.24002,0.542927 0.79506,0 0.43579,0.41946 4.951,-5.780519 4.10563,-5.637566 5.13712,-6.909523 5.60323,-6.909523 0.62432,0 4.19248,1.489295 8.42615,3.516945 l 2.46224,1.179248 -1.65911,7.704558 c -0.9125,4.237506 -1.6421,7.94448 -1.62132,8.237718 0.0346,0.489164 0.17024,0.627232 1.64314,1.67318 0.88295,0.627011 3.0846,2.23562 4.89254,3.574689 3.56758,2.642346 4.06421,2.944944 4.60886,2.808201 0.34676,-0.08706 5.43121,-3.017559 10.96363,-6.319065 l 2.65312,-1.583259 1.14683,1.109021 c 1.47539,1.426757 4.39438,4.652535 5.82753,6.440032 0.98496,1.228491 1.11019,1.455393 1.04237,1.88859 -0.10433,0.666383 -0.91037,1.878463 -4.40762,6.628006 -3.82643,5.196569 -4.72583,6.490929 -4.74306,6.82589 -0.008,0.149995 0.56877,1.270339 1.28108,2.489653 0.71232,1.219314 2.1082,3.711692 3.10193,5.538618 l 1.80679,3.321684 1.16398,-0.08726 c 0.64019,-0.04799 3.84724,-0.350305 7.12678,-0.671806 3.27953,-0.321503 6.45524,-0.628109 7.05711,-0.681349 l 1.09433,-0.0968 0.45806,1.192777 c 0.94809,2.46876 2.8395,8.848976 3.03499,10.237794 0.10967,0.779064 0.79342,0.320803 -7.41426,4.969147 -3.4198,1.93678 -6.31291,3.61233 -6.42911,3.723445 -0.17974,0.171855 -0.17254,0.746216 0.0482,3.845806 0.28964,4.066698 0.65542,8.179312 0.78044,8.774852 0.0692,0.32982 0.24368,0.44035 1.10842,0.70237 0.9955,0.30164 14.44616,4.53131 14.51505,4.56438 0.074,0.0355 -0.29471,3.82423 -0.65457,6.72609 -0.4275,3.44716 -0.80163,5.75938 -0.95694,5.91407 -0.15242,0.15182 -2.67425,0.49926 -8.13143,1.12031 -2.64885,0.30145 -5.53328,0.64807 -6.40986,0.77027 -0.87656,0.1222 -1.64882,0.22218 -1.7161,0.22218 -0.0673,0 -0.22014,0.18921 -0.33965,0.42046 -0.34485,0.66723 -3.45616,9.66921 -3.55452,10.28429 -0.0781,0.48868 -0.0173,0.63681 0.50637,1.23215 0.81733,0.92927 2.67741,2.69932 5.9332,5.64605 3.76259,3.40541 5.27478,4.8643 5.27478,5.08885 0,0.2422 -1.91384,3.75126 -3.53691,6.48498 -1.59555,2.68738 -2.69259,4.32119 -2.97397,4.42917 -0.12155,0.0466 -3.73612,-1.06464 -8.0324,-2.46952 -4.29628,-1.40487 -7.8627,-2.49625 -7.92537,-2.42529 -1.1666,1.32072 -4.6666,5.16837 -6.02817,6.62693 -1.488,1.59401 -1.77225,1.97458 -1.71291,2.29338 0.0391,0.21023 1.52021,3.568 3.2913,7.4617 1.77109,3.89371 3.22016,7.13667 3.22016,7.20659 0,0.45545 -9.38789,7.22954 -10.70644,7.72553 -0.15662,0.0589 -1.33788,-0.92583 -3.59296,-2.99519 -4.46982,-4.10171 -8.11522,-7.34556 -8.56104,-7.61802 -0.43497,-0.26581 -0.66698,-0.1818 -6.7624,2.44879 l -4.01342,1.73205 v 8.29144 8.29143 l -0.87913,0.25565 c -1.8772,0.5459 -7.05777,1.66231 -10.18982,2.19587 l -1.60984,0.27426 z"
       id="path4547"
       inkscape:connector-curvature="0" />
    <path
       style="fill:#ff0000;stroke-width:0.15289208"
       d="m 110.8458,196.31629 c -0.47906,-0.50002 -1.88755,-3.46624 -4.59792,-9.683 l -2.11638,-4.85432 -5.898846,0.002 -5.898847,0.002 -1.673109,3.8595 c -2.420981,5.58466 -4.245897,9.57395 -4.720553,10.31917 -0.354879,0.55717 -0.488422,0.6498 -0.936897,0.6498 -1.06933,0 -7.138326,-1.22797 -10.613419,-2.14745 l -1.855546,-0.49196 v -8.28161 -8.28162 l -3.096064,-1.35531 c -6.306124,-2.76051 -6.844577,-2.98843 -7.060277,-2.98843 -0.277791,0 -1.89362,1.28781 -4.429757,3.53051 -6.88128,6.08507 -8.01286,7.01905 -8.50414,7.01905 -0.770671,0 -10.393127,-6.98879 -10.393127,-7.54852 0,-0.0949 1.445942,-3.35631 3.213203,-7.24757 1.767261,-3.89124 3.229292,-7.20245 3.248957,-7.35823 0.05046,-0.3997 -7.811686,-9.07855 -8.117814,-8.96108 -0.1236,0.0474 -2.674103,0.88083 -5.667782,1.85201 -5.882097,1.9082 -9.381519,2.96595 -9.812457,2.96595 -0.362922,0 -0.660942,-0.40065 -2.501989,-3.36363 -1.97862,-3.18438 -3.520705,-5.94187 -3.393849,-6.06873 0.05373,-0.0537 11.123169,-0.14276 24.598759,-0.19786 l 24.501071,-0.10019 -24.734077,-0.0273 -24.734078,-0.0273 -0.149108,-0.39219 c -0.345967,-0.90996 -0.284546,-0.99239 2.832288,-3.8012 l 5.962791,-5.37351 c 1.639767,-1.47772 2.981395,-2.71612 2.981395,-2.75202 0,-0.0359 -0.437789,-1.2521 -0.972866,-2.70269 -0.535076,-1.45058 -1.367242,-3.82676 -1.849257,-5.28038 -0.970626,-2.92714 -1.293254,-3.45956 -2.181797,-3.60053 -0.317152,-0.0503 -3.672705,-0.40619 -7.456784,-0.79084 -8.7753189,-0.892 -7.9923779,-0.7548 -8.173903,-1.4324 -0.3307008,-1.23446 -1.0559941,-7.05695 -1.308575,-10.50496 -0.085839,-1.17179 -0.062756,-1.42809 0.1475565,-1.6384 0.1371222,-0.13713 2.7063836,-1.04623 5.7094695,-2.02023 7.883981,-2.55704 9.188991,-3.00372 9.353028,-3.20137 0.224003,-0.26991 0.426374,-1.88223 0.845262,-6.734332 0.210529,-2.438628 0.420603,-4.781083 0.466828,-5.205455 l 0.08405,-0.771587 -6.972877,-3.957919 C 11.133278,85.194281 7.8899411,83.336042 7.7609445,83.241718 7.554332,83.090639 7.6107891,82.761742 8.2350948,80.479512 9.616501,75.429601 11.035664,71.31439 11.493296,71.031558 c 0.08462,-0.0523 1.555204,0.07191 3.267963,0.276022 5.534645,0.659569 10.421878,1.157401 11.722921,1.194139 l 1.269997,0.03586 1.308482,-2.446274 c 0.719668,-1.34545 1.856182,-3.392293 2.525591,-4.548539 l 1.217106,-2.102266 23.419205,0.0023 23.419204,0.0023 -1.899564,1.004709 c -9.411742,4.978021 -16.421778,12.405885 -20.404123,21.620296 -6.08717,14.084585 -4.738025,30.052395 3.597547,42.578725 7.001309,10.52126 17.540321,17.39179 30.173046,19.67023 1.786884,0.32229 2.435339,0.35841 6.421467,0.35773 5.855322,-0.001 9.350792,-0.44125 13.518832,-1.70265 12.51958,-3.78889 22.7369,-12.84477 28.06611,-24.87574 2.62988,-5.9371 3.7494,-11.33618 3.74585,-18.06507 -0.002,-4.733701 -0.44041,-8.054069 -1.59741,-12.111686 -0.78374,-2.748619 -1.49193,-4.567773 -2.84403,-7.305604 -2.39443,-4.848428 -4.60641,-7.908119 -8.62586,-11.931616 -3.03031,-3.033352 -4.29787,-4.102578 -6.85733,-5.784333 -5.97914,-3.928745 -12.61995,-6.430593 -18.98469,-7.152267 -2.17248,-0.246329 -9.276742,-0.247585 -11.543357,-0.002 -3.13243,0.339337 -6.783344,1.307132 -10.832217,2.871434 l -1.73514,0.670381 H 56.449154 c -22.221962,0 -23.387939,-0.01341 -23.277884,-0.267561 0.06372,-0.147159 0.259225,-0.660226 0.43445,-1.140149 l 0.318592,-0.872588 -0.826091,-1.191455 c -0.454351,-0.655301 -2.370624,-3.31555 -4.258384,-5.911665 -1.88776,-2.596115 -3.640446,-5.055062 -3.894858,-5.464325 l -0.462567,-0.744115 0.39952,-0.574912 c 0.756564,-1.088699 3.547531,-4.247188 5.683476,-6.43189 l 2.140489,-2.189352 6.323999,3.60838 c 7.039073,4.016389 7.393301,4.208611 7.755657,4.208611 0.140307,0 0.67626,-0.286286 1.191004,-0.636188 1.061463,-0.721542 8.666102,-6.351391 9.303015,-6.887187 l 0.416729,-0.350567 -0.286776,-1.452474 c -0.157728,-0.798862 -0.91946,-4.40704 -1.692737,-8.018173 -1.60051,-7.474225 -1.609414,-6.598285 0.07581,-7.457927 2.314283,-1.180528 9.497039,-4.224607 9.613798,-4.074365 0.02425,0.0312 0.493476,0.607136 1.042734,1.279861 0.549258,0.672725 2.188674,2.839971 3.643149,4.816101 3.517016,4.778417 4.790978,6.456169 5.092118,6.706092 0.299881,0.24888 0.403276,0.232204 5.988286,-0.965822 6.135615,-1.316135 6.824415,-1.491179 7.21335,-1.833127 0.432544,-0.380288 0.579258,-0.947213 2.099196,-8.111675 1.661366,-7.831096 1.581517,-7.522263 1.971962,-7.626964 0.496172,-0.133053 11.848929,-0.113465 11.929659,0.02058 0.038,0.06307 0.66942,3.004329 1.40319,6.536136 1.72453,8.300608 1.88236,8.918005 2.3722,9.279447 0.40929,0.302006 10.39635,2.491945 12.1769,2.670124 0.89849,0.08991 0.96303,0.07338 1.3547,-0.347021 0.22619,-0.242785 1.83129,-2.392508 3.56688,-4.777161 4.40845,-6.057083 5.58253,-7.513403 6.05728,-7.513403 1.06275,0 11.00336,4.512545 10.86029,4.930035 -0.0637,0.185793 -2.77673,12.890556 -3.13719,14.69088 -0.0982,0.490399 -0.14013,1.044622 -0.0932,1.231606 0.0516,0.205717 0.70599,0.78662 1.65703,1.471022 0.86443,0.622078 2.74132,1.991479 4.17086,3.043113 3.67523,2.703663 4.67539,3.377054 5.01583,3.377054 0.16399,0 0.68495,-0.218219 1.15769,-0.484931 1.30457,-0.736024 7.74269,-4.496525 10.40512,-6.07762 l 2.35967,-1.401302 1.20686,1.191647 c 1.5731,1.55327 4.36843,4.656022 5.74755,6.379651 0.74559,0.931848 1.09273,1.496323 1.09273,1.776866 0,0.550485 -0.87477,1.861327 -4.91072,7.358745 -3.63914,4.956895 -4.2628,5.867365 -4.2628,6.223178 0,0.1258 0.78147,1.608761 1.73661,3.29547 0.95513,1.686708 2.34457,4.182309 3.08762,5.545781 l 1.351,2.479039 0.84936,-0.07374 c 3.37832,-0.293301 6.40482,-0.576545 9.5642,-0.895098 2.01817,-0.203487 4.19205,-0.415175 4.83082,-0.470416 l 1.16143,-0.100441 0.31375,0.73708 c 0.76276,1.791863 2.99623,9.264139 3.19809,10.699449 0.1092,0.776435 0.81368,0.301673 -7.32775,4.938224 -3.38335,1.92682 -6.27909,3.598026 -6.435,3.713793 -0.26861,0.199466 -0.27436,0.342031 -0.10999,2.723632 0.32318,4.682045 0.79875,9.838738 0.93001,10.083988 0.12226,0.22844 3.39685,1.3171 12.45927,4.14217 1.68181,0.52428 3.07787,0.96714 3.10233,0.98414 0.16158,0.11225 -1.0147,10.0789 -1.39745,11.84066 l -0.18238,0.83954 -1.03033,0.18673 c -0.56666,0.10271 -4.03132,0.53624 -7.69923,0.96341 -3.66789,0.42717 -6.91809,0.82818 -7.22263,0.89113 -0.501,0.10356 -0.58856,0.20122 -0.91956,1.02556 -0.66283,1.65083 -3.38003,9.71666 -3.38003,10.03344 0,0.4271 1.4409,1.89327 5.58056,5.67844 4.4848,4.10074 6.19213,5.73458 6.19213,5.92557 0,0.36428 -1.85551,3.73799 -4.07311,7.40579 -1.55333,2.56913 -2.28145,3.59296 -2.55519,3.59296 -0.11212,0 -3.70219,-1.1363 -7.97794,-2.52511 l -7.7741,-2.52511 -0.69719,0.80507 c -0.83479,0.96398 -3.04527,3.38742 -5.19692,5.69763 -0.86152,0.92499 -1.67179,1.83713 -1.80062,2.02696 -0.28356,0.41784 -0.57182,-0.29875 3.41223,8.48227 1.63051,3.59373 2.96457,6.59713 2.96457,6.67423 0,0.42802 -7.36833,5.82763 -10.13525,7.42725 -0.71957,0.41599 -0.73812,0.41841 -1.06017,0.13771 -0.18029,-0.15713 -2.01796,-1.82929 -4.08372,-3.7159 -2.06576,-1.88663 -4.64891,-4.21068 -5.74034,-5.16457 -1.81944,-1.59016 -2.02281,-1.72606 -2.44627,-1.63468 -0.25403,0.0548 -2.64631,1.03699 -5.31619,2.18263 l -4.85432,2.08295 v 8.28308 8.28308 l -0.4969,0.16156 c -1.42131,0.46214 -7.26147,1.72801 -10.5821,2.29369 l -1.59979,0.27255 z"
       id="path4549"
       inkscape:connector-curvature="0" />
    <path
       style="fill:#ff0000;stroke-width:0.15289208"
       d="m 110.78527,196.29691 c -0.48889,-0.61901 -2.04475,-3.92388 -4.54944,-9.66362 l -2.11831,-4.85432 -5.891856,0.003 -5.891857,0.003 -1.972861,4.54511 c -2.49976,5.75899 -3.896643,8.79746 -4.436121,9.64934 l -0.424522,0.67037 -1.027147,-0.0955 c -1.716635,-0.15955 -7.324975,-1.33808 -10.753959,-2.25982 l -1.184914,-0.31852 -0.0018,-8.27766 -0.0018,-8.27764 -4.623175,-2.02407 c -2.542747,-1.11324 -4.848171,-2.10088 -5.123166,-2.19475 -0.466498,-0.15924 -0.555431,-0.12881 -1.327565,0.45415 -0.876546,0.66181 -2.335277,1.91768 -7.040185,6.06113 -3.213502,2.83003 -4.567975,3.89567 -4.951543,3.89567 -0.739826,0 -10.087356,-6.70783 -10.368503,-7.44049 -0.04359,-0.1136 1.342475,-3.34653 3.080149,-7.18428 1.737673,-3.83774 3.195504,-7.15821 3.239624,-7.37881 0.09036,-0.45182 0.10876,-0.42835 -3.365988,-4.29385 -2.812106,-3.12835 -4.396068,-4.73966 -4.659216,-4.73966 -0.117989,0 -2.011641,0.58996 -4.208119,1.31103 -6.371607,2.09168 -10.368045,3.29794 -11.019536,3.32608 -0.584839,0.0252 -0.628604,-0.009 -1.347276,-1.04414 -0.856796,-1.23449 -3.87548,-6.2426 -4.470209,-7.41624 -0.221264,-0.43664 -0.364111,-0.83208 -0.317437,-0.87876 0.04667,-0.0467 9.15029,-0.13087 20.230256,-0.1871 l 20.145383,-0.10212 -20.376653,-0.027 -20.376654,-0.027 -0.149108,-0.39219 c -0.389458,-1.02435 -0.848152,-0.53196 7.380827,-7.92302 2.417606,-2.17144 4.395647,-3.97205 4.395647,-4.00136 0,-0.0293 -0.317014,-0.89936 -0.704474,-1.93342 -0.387461,-1.03407 -1.175129,-3.26914 -1.750375,-4.96683 -1.128748,-3.33121 -1.525277,-4.24144 -1.941298,-4.45622 -0.425916,-0.21989 -0.965203,-0.28747 -8.127926,-1.01846 -8.6633792,-0.88414 -7.9288644,-0.75422 -8.1082955,-1.43426 -0.3579151,-1.35651 -1.086724,-7.1356 -1.3149114,-10.4266 -0.085016,-1.22613 -0.062083,-1.50303 0.1413236,-1.70643 0.1335437,-0.13355 1.6028425,-0.69073 3.2651087,-1.23818 1.6622666,-0.54746 4.9487426,-1.62735 7.3032806,-2.39976 2.354538,-0.77241 4.359373,-1.46795 4.455191,-1.54564 0.242227,-0.19641 0.44747,-1.79283 0.891671,-6.935574 0.210633,-2.438629 0.415715,-4.717849 0.455736,-5.064935 0.0544,-0.471805 0.0066,-0.687426 -0.189306,-0.854395 C 21.509823,91.110336 18.39257,89.31131 14.726732,87.235332 11.060895,85.159354 7.9389964,83.371197 7.7891805,83.261648 7.5320171,83.073606 7.5605171,82.903941 8.2989401,80.226975 c 1.3953645,-5.058542 2.7349249,-8.912179 3.1972889,-9.197934 0.08623,-0.05329 1.90082,0.107027 4.032423,0.356269 3.875878,0.453195 8.808285,0.970125 11.005064,1.153361 l 1.166632,0.09731 1.404462,-2.623186 c 0.772454,-1.442754 1.907353,-3.494696 2.522,-4.559872 l 1.117538,-1.936684 23.449712,-0.03618 23.449713,-0.03618 -1.605367,0.853338 c -7.357691,3.911004 -12.859412,8.789726 -17.050547,15.119797 -8.748962,13.21397 -9.816057,30.496646 -2.751485,44.563046 2.314962,4.60937 5.195428,8.50689 9.043284,12.23636 3.519611,3.41133 6.924074,5.811 11.29387,7.96061 5.886868,2.89589 11.38086,4.34142 17.200359,4.5256 8.566453,0.27112 15.504783,-1.14718 22.348843,-4.56844 8.53141,-4.26475 15.61266,-11.31985 19.91692,-19.84335 2.43,-4.81199 3.7967,-9.18362 4.54087,-14.52475 0.31423,-2.25533 0.26981,-9.845328 -0.0707,-12.078473 -0.89345,-5.859604 -2.82805,-11.245353 -5.87643,-16.359452 -2.32033,-3.89268 -5.11207,-7.222909 -9.01261,-10.751022 -5.86121,-5.301576 -13.98271,-9.240187 -21.80195,-10.573099 -3.50449,-0.597395 -11.706717,-0.59973 -15.166838,-0.0043 -2.689659,0.462832 -5.629035,1.3084 -8.824712,2.538599 l -1.94457,0.748569 H 56.46906 c -22.237799,0 -23.408244,-0.01344 -23.305993,-0.267561 0.774072,-1.923818 0.762145,-1.861475 0.455719,-2.381894 -0.309703,-0.525987 -2.358369,-3.393263 -6.018619,-8.423555 -1.280276,-1.759488 -2.503506,-3.498929 -2.718286,-3.865424 l -0.39051,-0.666355 0.437852,-0.634724 c 0.726693,-1.053439 3.793974,-4.507607 5.833686,-6.569513 l 1.918384,-1.939257 0.577003,0.294365 c 0.31735,0.1619 2.971741,1.660204 5.898645,3.329564 6.965347,3.972687 7.295277,4.153333 7.585589,4.153333 0.344409,0 2.060412,-1.192481 6.840986,-4.75393 3.511589,-2.616073 4.109351,-3.117967 4.049827,-3.400327 -0.03841,-0.182189 -0.318745,-1.535278 -0.622974,-3.006864 -0.304229,-1.471587 -1.031413,-4.908631 -1.615966,-7.637878 -0.584552,-2.729247 -1.032526,-5.041217 -0.995497,-5.137712 0.138057,-0.35977 6.7873,-3.451729 9.92682,-4.616061 l 1.041415,-0.386222 0.447254,0.518095 c 0.245989,0.284952 1.703792,2.203331 3.239563,4.263063 4.806373,6.446174 5.995422,7.997752 6.247971,8.152912 0.174902,0.107455 1.726717,-0.165387 5.427669,-0.954302 7.086893,-1.510679 7.518549,-1.630278 7.849782,-2.174947 0.279959,-0.460354 0.770579,-2.537096 2.296752,-9.721887 1.223953,-5.762025 1.19374,-5.652406 1.586965,-5.7579 0.492052,-0.132006 11.843513,-0.110942 11.924373,0.02213 0.0383,0.06307 0.66558,2.969928 1.3939,6.45969 1.48778,7.128789 1.84585,8.64642 2.15189,9.120486 0.24513,0.379717 1.22165,0.634134 7.51514,1.957956 5.29021,1.112784 5.60433,1.147634 6.10841,0.677697 0.21573,-0.201123 1.95058,-2.489772 3.85522,-5.085886 4.32086,-5.889525 5.36457,-7.189906 5.82451,-7.256822 0.57643,-0.08386 4.02898,1.325486 8.36678,3.415359 l 2.62502,1.264691 -0.13076,0.590648 c -0.73609,3.325022 -3.05675,14.355173 -3.13191,14.886057 -0.0904,0.638808 -0.0611,0.721696 0.41008,1.158963 0.27912,0.259022 1.74592,1.366077 3.25955,2.460121 1.51363,1.094044 3.54786,2.571379 4.52051,3.282969 2.44888,1.791606 2.50961,1.811766 3.65771,1.214247 1.02237,-0.532085 6.6924,-3.835377 10.46229,-6.095203 l 2.43397,-1.459012 2.00083,2.050562 c 3.51842,3.605856 6.05063,6.685148 6.05063,7.357837 0,0.510525 -0.95005,1.943428 -4.47853,6.754688 -3.52584,4.807679 -4.69499,6.499112 -4.69499,6.792365 0,0.121336 0.61303,1.295262 1.36231,2.608724 0.74928,1.313461 2.13217,3.798541 3.0731,5.522399 0.94094,1.723858 1.72114,3.143192 1.73377,3.154075 0.0562,0.04848 3.96979,-0.295222 8.89069,-0.780805 8.4464,-0.833474 7.47015,-0.797049 7.70796,-0.287596 0.68705,1.47188 3.12822,9.504451 3.31392,10.904326 l 0.0991,0.747119 -0.7444,0.46489 c -0.40942,0.255689 -3.54597,2.063445 -6.97009,4.017235 -3.42413,1.953791 -6.26185,3.646626 -6.30607,3.761854 -0.13101,0.341378 0.67544,11.061995 0.92471,12.292905 0.0702,0.34671 0.24871,0.46728 1.18167,0.79812 0.99513,0.3529 6.93526,2.24451 12.38603,3.94428 l 2.11355,0.65909 -0.0953,1.07024 c -0.31966,3.58773 -1.16461,10.18171 -1.43019,11.16112 -0.11511,0.42452 -0.20142,0.47265 -1.15871,0.64619 -0.56888,0.10312 -3.41918,0.46479 -6.33402,0.80371 -7.05226,0.81997 -8.77002,1.06048 -9.01267,1.26186 -0.11189,0.0929 -0.30666,0.41513 -0.43279,0.71614 -0.44206,1.05494 -3.24373,9.27503 -3.34475,9.8135 -0.0942,0.5022 -0.0394,0.6127 0.71283,1.43825 0.44819,0.49183 2.46612,2.40729 4.4843,4.25656 6.06434,5.55683 6.53941,6.02998 6.43989,6.41397 -0.19,0.73319 -3.94531,7.29596 -5.47589,9.56965 -0.36202,0.53779 -0.76985,1.04791 -0.90629,1.13362 -0.18772,0.11791 -2.10373,-0.44421 -7.87394,-2.31005 -4.19423,-1.35623 -7.72967,-2.48524 -7.85654,-2.50891 -0.13155,-0.0245 -0.85129,0.64656 -1.6748,1.5616 -0.79427,0.88255 -2.2054,2.43025 -3.13586,3.43934 -3.22732,3.50004 -3.30896,3.60085 -3.20243,3.95448 0.0541,0.17957 1.53546,3.50919 3.29193,7.39916 1.75646,3.88996 3.19357,7.13671 3.19357,7.21499 0,0.20555 -2.90028,2.49837 -5.55355,4.39036 -2.09799,1.49603 -5.08102,3.41489 -5.30874,3.41489 -0.0523,0 -1.87819,-1.62877 -4.0575,-3.61951 -4.5062,-4.11626 -7.35674,-6.63998 -7.90741,-7.00079 -0.46305,-0.3034 -0.30265,-0.35961 -6.41235,2.24729 l -4.39458,1.8751 -0.001,8.28792 -10e-4,8.28792 -1.03202,0.29881 c -1.84012,0.5328 -5.2253,1.26809 -9.28236,2.01619 -1.34225,0.2475 -2.44307,0.4462 -2.44628,0.44155 -0.003,-0.005 -0.16524,-0.21032 -0.36009,-0.45703 z"
       id="path4551"
       inkscape:connector-curvature="0" />
    <path
       style="fill:#ff0000;stroke-width:0.15289208"
       d="m 110.71274,196.19562 c -0.55951,-0.80904 -2.14832,-4.19843 -4.55411,-9.71522 l -2.05022,-4.70143 -5.887304,0.004 -5.887299,0.004 -1.596262,3.70396 c -2.301312,5.33996 -4.35033,9.81751 -4.811825,10.51487 -0.349915,0.52876 -0.473073,0.60436 -0.984462,0.60436 -1.140266,0 -7.772865,-1.35383 -10.948181,-2.23471 l -1.458794,-0.40469 v -8.2757 -8.2757 l -2.178712,-0.94489 c -1.198292,-0.51968 -3.46383,-1.50375 -5.034528,-2.18684 -2.752874,-1.19721 -2.871365,-1.23376 -3.28718,-1.01398 -0.563962,0.29809 -1.960746,1.47353 -6.343041,5.33787 -4.41726,3.89519 -5.771493,4.99346 -6.163781,4.99873 -0.166523,0.002 -0.716934,-0.24924 -1.223137,-0.55888 -2.490621,-1.52345 -8.782037,-6.19503 -9.150895,-6.79484 -0.117463,-0.19101 0.54602,-1.79684 2.874287,-6.95659 1.664851,-3.68955 3.13387,-6.99517 3.264489,-7.34582 l 0.237489,-0.63756 -0.55926,-0.6825 c -0.778479,-0.95003 -4.833741,-5.4347 -6.242918,-6.90398 l -1.16721,-1.21699 -1.509641,0.4692 c -0.830304,0.25805 -3.78009,1.19922 -6.555082,2.09148 -5.704669,1.83427 -7.44058,2.3248 -7.774129,2.19681 -0.304003,-0.11666 -1.371621,-1.71194 -3.3456,-4.99912 -1.754144,-2.9211 -2.475455,-4.26771 -2.352087,-4.39107 0.04383,-0.0438 7.702614,-0.12836 17.019523,-0.18785 l 16.939832,-0.10815 -17.156757,-0.0263 c -17.116127,-0.0262 -17.157153,-0.027 -17.324188,-0.33914 -0.09209,-0.17207 -0.146109,-0.53144 -0.120048,-0.7986 0.04143,-0.42468 0.771996,-1.13971 5.811785,-5.68816 3.17042,-2.86133 5.838645,-5.27684 5.929391,-5.36778 0.118102,-0.11837 0.01723,-0.55287 -0.354936,-1.52892 -0.285958,-0.74996 -1.08922,-3.0148 -1.785022,-5.03297 -1.3811,-4.00588 -1.689878,-4.72886 -2.117337,-4.95763 -0.314043,-0.16807 -3.386649,-0.53213 -10.417893,-1.23437 -6.0109886,-0.60034 -5.6206265,-0.5195 -5.8030883,-1.2018 -0.3570909,-1.33532 -1.0893309,-7.12437 -1.3188371,-10.42667 -0.087011,-1.25197 -0.064862,-1.49768 0.1548059,-1.71735 0.1409896,-0.14099 3.3315016,-1.26352 7.0900265,-2.49451 8.528583,-2.79328 7.941416,-2.55853 8.126926,-3.24905 0.20895,-0.77777 1.100242,-10.623429 1.045213,-11.545971 L 21.697663,91.21946 14.741074,87.26 C 10.91495,85.082297 7.7258836,83.24223 7.6542604,83.170963 c -0.1526378,-0.15188 0.9808299,-4.414384 2.0752684,-7.804228 0.7881442,-2.441148 1.4911262,-4.166028 1.7674932,-4.336833 0.08667,-0.05357 2.554876,0.175491 5.484897,0.509015 7.708263,0.877431 10.63347,1.11667 10.787252,0.882237 0.06808,-0.103789 0.739469,-1.333043 1.491967,-2.731675 0.752498,-1.398632 1.843544,-3.359473 2.424546,-4.357424 l 1.056369,-1.814456 23.449649,-0.03871 23.449648,-0.03871 -2.139285,1.16504 c -8.67563,4.724692 -14.890445,11.005246 -19.044891,19.246349 -3.338364,6.622256 -4.782761,12.73668 -4.785712,20.258892 -0.0015,3.89528 0.143512,5.45765 0.82387,8.8747 1.366847,6.86491 4.461519,13.46413 8.958979,19.10455 1.437869,1.80328 5.176201,5.51483 7.04758,6.9971 7.711344,6.10792 17.531335,9.65968 26.727069,9.66682 2.233945,0.002 6.2075,-0.26566 8.07342,-0.5433 7.0514,-1.04922 13.84568,-3.93072 19.67389,-8.34384 9.59481,-7.26521 15.80054,-17.78657 17.52759,-29.7168 0.3618,-2.49923 0.36191,-9.92415 1.5e-4,-12.354476 -1.12604,-7.565925 -4.50555,-15.436745 -9.03928,-21.052445 -2.47114,-3.060872 -5.93434,-6.454651 -8.6705,-8.496692 -6.17653,-4.609651 -14.14117,-7.809875 -21.11977,-8.486008 -2.61835,-0.253683 -11.038258,-0.104549 -12.943892,0.229263 -2.831826,0.496055 -6.747343,1.649522 -9.617138,2.833101 l -1.129497,0.465833 H 56.525729 33.06752 l 0.10612,-0.344007 c 0.05837,-0.189204 0.190948,-0.516011 0.29463,-0.726238 0.103681,-0.210226 0.234092,-0.572282 0.289801,-0.80457 0.123208,-0.513731 -0.04411,-0.768293 -4.847591,-7.375156 -1.895264,-2.60681 -3.665823,-5.101449 -3.934576,-5.543643 l -0.48864,-0.803989 0.381893,-0.57204 c 0.669237,-1.002458 3.330865,-4.01325 5.621918,-6.359427 l 2.219048,-2.272441 5.922363,3.375984 c 6.178641,3.522071 7.890488,4.454506 8.177979,4.454506 0.236891,0 1.704733,-1.017394 5.465618,-3.788343 4.654617,-3.429433 5.274777,-3.947519 5.274777,-4.406594 0,-0.211344 -0.72401,-3.801081 -1.608911,-7.977193 -0.8849,-4.176111 -1.575169,-7.680855 -1.533931,-7.78832 0.135324,-0.352651 8.267327,-4.096494 10.381882,-4.779651 0.730496,-0.236005 0.225924,-0.814037 5.986124,6.857653 l 4.433871,5.905226 0.611568,-0.04669 c 0.682331,-0.05209 10.297647,-2.07101 11.41667,-2.397146 1.110684,-0.323705 1.30681,-0.481885 1.565173,-1.262341 0.132492,-0.400231 0.862911,-3.617353 1.623153,-7.14916 1.571866,-7.302328 1.644967,-7.603151 1.884948,-7.756932 0.231498,-0.148345 11.985893,-0.150623 12.076293,-0.0023 0.0385,0.06307 0.63252,2.797925 1.32015,6.07746 1.43138,6.826768 1.92496,8.992649 2.14156,9.397372 0.0841,0.157153 0.48039,0.394055 0.88062,0.526449 0.85421,0.282567 9.35802,2.115844 11.0959,2.39209 1.11074,0.176557 1.22252,0.169124 1.59071,-0.105768 0.21781,-0.162619 1.76082,-2.150809 3.42891,-4.418201 3.67661,-4.997534 5.77572,-7.71452 6.12535,-7.928365 0.36824,-0.22523 1.21028,0.02658 3.8163,1.141273 1.61378,0.690276 7.07813,3.212005 7.4243,3.426224 0.0192,0.01187 -0.54148,2.700611 -1.24591,5.974979 -2.11252,9.819526 -2.13837,9.96374 -1.86179,10.385864 0.13025,0.198775 1.45972,1.249671 2.9544,2.335324 1.49467,1.085653 3.62393,2.637282 4.73167,3.448061 1.10775,0.81078 2.24839,1.58588 2.53477,1.722445 0.50196,0.239368 0.54878,0.234069 1.30139,-0.14731 0.90127,-0.456707 4.91492,-2.782469 9.7255,-5.635562 l 3.34438,-1.983507 1.44354,1.430561 c 1.67283,1.657776 4.94178,5.312658 5.93498,6.635664 0.40396,0.538078 0.68426,1.075732 0.68521,1.314299 0.002,0.522901 -1.08986,2.175177 -4.57071,6.916145 -3.33608,4.543796 -4.60121,6.353603 -4.60121,6.582124 0,0.145427 4.80839,8.945847 5.85694,10.719511 l 0.36503,0.617446 1.66689,-0.121672 c 0.91679,-0.06692 4.44956,-0.396369 7.85061,-0.732113 3.40104,-0.335744 6.34138,-0.610444 6.53409,-0.610444 0.26001,0 0.41264,0.147865 0.59186,0.573345 0.76966,1.827241 3.0369,9.382195 3.21222,10.703837 l 0.10367,0.781564 -0.82106,0.517693 c -0.4516,0.284732 -3.52915,2.060808 -6.83903,3.946835 -3.30987,1.886028 -6.10747,3.566745 -6.21688,3.734926 -0.15655,0.24062 -0.16968,0.761932 -0.0617,2.446273 0.28496,4.44309 0.78187,9.645854 0.9553,10.002184 0.21285,0.43733 0.22758,0.44257 9.12426,3.24646 3.48976,1.09984 6.36944,2.02186 6.39928,2.04892 0.23955,0.21724 -1.31222,12.32048 -1.61859,12.62444 -0.17598,0.1746 -1.65992,0.38571 -7.98025,1.13531 -8.40934,0.99735 -8.25071,0.97137 -8.52982,1.39733 -0.27379,0.41787 -1.06753,2.59367 -2.63313,7.21802 -0.91121,2.69147 -1.07936,3.33422 -0.94778,3.62298 0.27296,0.59907 1.19461,1.52377 4.99007,5.00658 5.13391,4.71099 6.65081,6.16126 6.65081,6.35864 0,0.65855 -5.45274,10.05104 -6.25827,10.78003 -0.38501,0.34843 0.62268,0.62624 -8.88708,-2.45005 -3.747,-1.21211 -6.92101,-2.20384 -7.05336,-2.20384 -0.26847,0 -7.5369,7.8442 -7.90399,8.53012 -0.17219,0.32174 -0.22684,0.19037 3.56548,8.56981 1.57341,3.47657 2.82633,6.41069 2.78429,6.52026 -0.24865,0.64796 -9.31031,7.14823 -10.65842,7.64568 -0.16474,0.0608 -1.45892,-1.02351 -4.12809,-3.45859 -6.71091,-6.12239 -7.94353,-7.16685 -8.458,-7.16685 -0.25036,0 -2.67753,0.94602 -5.39371,2.10227 l -4.93851,2.10227 -0.002,8.2821 -0.002,8.28212 -0.72623,0.23756 c -1.27402,0.41674 -6.22484,1.50327 -9.44109,2.07196 -1.00909,0.17843 -2.0125,0.35948 -2.2298,0.40234 -0.32602,0.0643 -0.46522,-0.0235 -0.79616,-0.50201 z"
       id="path4553"
       inkscape:connector-curvature="0" />
    <path
       style="fill:#ff0000;stroke-width:0.15289208"
       d="m 110.77957,196.30115 c -0.62288,-0.8425 -2.85263,-5.66127 -5.9954,-12.95679 l -0.67585,-1.56891 -5.882223,0.04 -5.882226,0.04 -1.792958,4.10058 c -2.70415,6.18451 -4.08453,9.18777 -4.58747,9.98082 l -0.453949,0.71581 -1.09816,-0.0965 c -1.751441,-0.1539 -7.425334,-1.35887 -11.257645,-2.3908 l -0.619406,-0.16679 -9.17e-4,-8.28849 -9.18e-4,-8.28851 -4.318291,-1.87452 c -2.375061,-1.03098 -4.674758,-2.00932 -5.110439,-2.1741 l -0.792149,-0.29956 -0.932578,0.68653 c -0.512919,0.37759 -2.598902,2.15156 -4.635521,3.94217 -5.260917,4.62542 -6.829536,5.91161 -7.209724,5.91161 -0.18127,0 -0.830028,-0.30856 -1.441685,-0.68566 -2.595248,-1.60008 -8.802296,-6.25123 -8.987918,-6.73495 -0.04735,-0.12338 0.619036,-1.78949 1.480847,-3.70246 3.556577,-7.89453 4.887395,-10.91776 4.887395,-11.10269 0,-0.34232 -7.665527,-8.81134 -7.975359,-8.81134 -0.09148,0 -2.617342,0.78758 -5.613019,1.75018 -7.337239,2.35766 -9.008701,2.85389 -9.720568,2.88587 -0.584977,0.0263 -0.628516,-0.007 -1.349898,-1.04308 -0.863045,-1.23912 -3.847179,-6.18977 -4.455873,-7.39225 -0.227707,-0.44983 -0.378229,-0.85367 -0.334495,-0.8974 0.04374,-0.0437 6.32649,-0.12831 13.961681,-0.18796 l 13.882165,-0.10844 -14.098916,-0.0262 c -13.768683,-0.0256 -14.102621,-0.0331 -14.257185,-0.32192 -0.08705,-0.16265 -0.158272,-0.50209 -0.158272,-0.75431 0,-0.4938 0.43995,-0.91648 8.455377,-8.12348 1.843313,-1.6574 3.316156,-3.09685 3.31657,-3.24137 4.59e-4,-0.14299 -0.245297,-0.9342 -0.546011,-1.75826 -0.300714,-0.82405 -1.097614,-3.08072 -1.770886,-5.0148 -1.313849,-3.77424 -1.625063,-4.4323 -2.157087,-4.56119 -0.643274,-0.15583 -2.793837,-0.40423 -8.826884,-1.01956 -3.32158,-0.33878 -6.2598472,-0.65642 -6.5294825,-0.70588 -0.3813017,-0.0699 -0.5236988,-0.19684 -0.6407831,-0.57106 -0.3387041,-1.08253 -1.1286942,-7.30343 -1.3261086,-10.44264 L 5.220108,109.33751 5.6613918,109.1111 c 0.242706,-0.12453 3.6061497,-1.26723 7.4743192,-2.53935 3.86817,-1.27212 7.124101,-2.37086 7.235405,-2.44165 0.111303,-0.0708 0.264601,-0.40569 0.340664,-0.74422 0.165369,-0.73601 1.062333,-10.343911 1.062333,-11.379277 v -0.724432 l -6.84192,-3.898505 C 11.169137,85.239498 7.9617041,83.390565 7.8045648,83.274935 7.5291401,83.072266 7.5441033,82.971079 8.2203103,80.463553 c 1.2622956,-4.680878 2.8122527,-9.147247 3.2732217,-9.43214 0.08475,-0.05238 2.965763,0.218427 6.40225,0.601794 3.436487,0.383366 7.06507,0.709281 8.063517,0.724255 l 1.815356,0.02723 1.721362,-3.134288 c 0.946749,-1.723858 2.05994,-3.7191 2.473761,-4.43387 l 0.752402,-1.299583 23.460792,-0.03807 23.460793,-0.03807 -2.353124,1.304034 c -5.591434,3.098613 -10.317407,6.983208 -13.913644,11.436566 -9.360544,11.591514 -12.239705,27.795309 -7.47367,42.061469 5.309042,15.89156 19.324456,27.61534 36.04825,30.15408 2.088377,0.31702 8.560613,0.35969 11.161123,0.0736 7.32582,-0.806 13.66439,-3.07648 19.64571,-7.03708 4.72609,-3.12945 9.57085,-7.97211 12.64369,-12.63824 3.46655,-5.26397 5.7839,-11.06265 6.85447,-17.15185 0.63649,-3.6202 0.67324,-11.53984 0.0694,-14.948829 -1.3314,-7.516071 -4.76579,-15.054231 -9.37091,-20.568263 -1.63364,-1.956063 -5.27807,-5.572732 -7.07862,-7.024704 -5.55443,-4.479102 -12.8299,-7.777872 -19.93521,-9.038824 -2.30694,-0.409403 -9.182591,-0.577259 -12.663243,-0.309147 -3.592187,0.276702 -7.369418,1.218465 -11.778174,2.93661 l -1.532951,0.597409 H 56.52748 c -12.891645,0 -23.439353,-0.02621 -23.439353,-0.05824 0,-0.03203 0.172406,-0.516283 0.383123,-1.076109 0.345983,-0.919187 0.362199,-1.058333 0.167276,-1.435272 -0.118717,-0.229573 -2.052617,-2.961791 -4.297557,-6.071595 -4.77586,-6.615764 -4.901592,-6.8117 -4.660351,-7.262462 0.367451,-0.686589 3.342173,-4.088957 5.636337,-6.446613 l 2.397253,-2.463601 6.187974,3.522361 c 3.403385,1.9373 6.579914,3.71448 7.05895,3.94929 l 0.870979,0.426928 1.116619,-0.742436 c 1.293126,-0.859793 7.044872,-5.091045 8.588036,-6.317758 l 1.04995,-0.834641 -0.09097,-0.663698 c -0.05003,-0.365033 -0.78251,-3.94733 -1.627723,-7.960659 -0.845215,-4.013329 -1.503402,-7.383877 -1.462638,-7.490108 0.08897,-0.231842 1.743328,-1.075615 4.747477,-2.421355 l 2.216112,-0.992732 h 2.664597 2.664599 l 4.000458,5.37033 c 2.200251,2.953681 4.155874,5.525745 4.345826,5.715697 0.336195,0.336196 0.375461,0.340078 1.478539,0.146183 1.774785,-0.311965 9.11076,-1.886514 10.383144,-2.228575 0.63068,-0.169548 1.298439,-0.450612 1.483908,-0.624585 0.343983,-0.322661 0.698593,-1.638323 1.702085,-6.315006 l 0.426486,-1.987597 7.720443,-0.03961 7.720441,-0.03961 0.64417,3.029417 c 0.35428,1.666179 0.79016,3.566524 0.9686,4.222988 0.39735,1.461761 0.18286,1.351637 4.49248,2.306445 6.31968,1.400139 8.72749,1.832504 9.14521,1.64218 0.20958,-0.09549 1.31466,-1.432941 2.45572,-2.972107 1.14106,-1.539166 2.9801,-4.019709 4.08675,-5.512318 l 2.0121,-2.713835 h 2.70873 c 2.58381,0 2.75015,0.01831 3.60688,0.397066 0.96655,0.427304 6.06952,2.82658 6.13768,2.88577 0.0227,0.01968 -0.20478,1.163927 -0.50543,2.542779 -1.45351,6.666248 -2.67614,12.62048 -2.6961,13.130124 -0.0122,0.311099 0.0255,0.642711 0.0837,0.736919 0.0868,0.140417 7.84672,5.873748 9.51637,7.031044 0.9869,0.684066 1.17842,0.688892 2.38926,0.06021 0.60995,-0.31669 3.72101,-2.113858 6.91346,-3.993706 l 5.80445,-3.417908 2.22238,2.28432 c 2.06172,2.119186 4.701,5.137474 5.4825,6.269787 0.18305,0.265252 0.33284,0.659558 0.33284,0.876233 0,0.481016 -1.68475,2.982286 -5.70945,8.476586 -1.62171,2.213859 -3.07382,4.257805 -3.22692,4.542101 l -0.27837,0.516902 2.56435,4.631424 c 1.4104,2.547283 2.80714,5.071291 3.10386,5.608905 l 0.53951,0.977482 1.61818,-0.09499 c 0.89,-0.05225 4.40039,-0.37171 7.80086,-0.709921 3.40047,-0.338209 6.3752,-0.614927 6.61052,-0.614927 0.34867,0 0.47349,0.10613 0.67437,0.573345 0.79055,1.838611 3.06369,9.484382 3.21115,10.800732 0.0852,0.760521 0.0742,0.788338 -0.42168,1.068803 -2.75953,1.56069 -9.52013,5.445572 -11.24982,6.464551 l -2.17872,1.283498 v 1.180325 c 0,1.304763 0.19378,4.137 0.54431,7.984027 0.32623,3.58029 0.30557,3.50153 1.00041,3.81262 0.32327,0.14474 3.83066,1.28764 7.79421,2.53979 l 7.20643,2.27663 -0.10038,1.22782 c -0.31902,3.9023 -1.32034,11.16156 -1.57468,11.4159 -0.17848,0.17848 -2.24039,0.47262 -8.39434,1.19749 -6.44966,0.75971 -7.54609,0.91109 -7.87535,1.08729 -0.32789,0.17548 -0.88052,1.608 -2.60846,6.76162 l -1.37407,4.09817 0.4355,0.62932 c 0.2395,0.34613 2.11928,2.18282 4.17725,4.08155 5.75199,5.30688 7.10932,6.60198 7.16343,6.83494 0.0715,0.30775 -1.53004,3.30882 -3.68397,6.90334 -1.94826,3.25129 -2.59305,4.16226 -2.94614,4.16226 -0.11711,0 -2.53736,-0.75245 -5.37831,-1.67211 -9.37527,-3.03494 -10.04596,-3.23725 -10.31488,-3.11138 -0.23344,0.10926 -1.57379,1.53601 -6.20605,6.60607 -1.44213,1.57843 -1.5879,1.79134 -1.51776,2.21693 0.0427,0.25894 1.4946,3.61495 3.22651,7.4578 1.73253,3.84284 3.14954,7.05096 3.14954,7.12913 0,0.45408 -7.42239,5.93008 -9.97917,7.36231 -0.76275,0.42726 -0.91696,0.46606 -1.13985,0.28673 -0.14177,-0.11405 -2.25608,-2.02207 -4.69847,-4.24002 -2.44239,-2.21796 -5.05367,-4.54722 -5.80285,-5.17616 -1.2303,-1.03284 -1.41142,-1.13553 -1.87136,-1.06088 -0.28008,0.0454 -2.6765,0.99869 -5.32539,2.11832 l -4.81615,2.03568 -0.002,8.28825 -0.002,8.28824 -0.9634,0.29758 c -1.57341,0.48597 -10.96654,2.45973 -11.73611,2.46607 -0.0473,0 -0.23938,-0.20686 -0.42694,-0.46054 z"
       id="path4555"
       inkscape:connector-curvature="0" />
  </g>
</svg>
